<svg width="271" height="444" viewBox="0 0 271 444" fill="none" xmlns="http://www.w3.org/2000/svg">
<g clip-path="url(#clip0_4_309)">
<path d="M77.09 133.074C76.5729 132.365 73.7574 132.499 72.5125 133.399C71.2867 134.319 71.6698 136.54 71.6698 136.54C72.5891 140.064 69.1225 141.558 67.3987 143.263C59.3737 151.096 54.9686 159.198 61.3273 168.966C63.2617 171.915 60.4846 172.452 58.5693 173.429C53.7619 175.899 48.8397 178.217 43.994 180.649C32.464 186.414 23.9027 194.535 21.0873 204.973C19.3444 211.428 16.9503 217.786 15.2265 224.26C13.1389 232.113 13.2921 240.176 14.1157 248.144C14.537 252.166 15.3031 256.149 16.4331 260.076C17.5249 263.887 19.2486 267.564 20.0722 271.414C21.7385 279.343 20.5701 287.388 18.7315 295.221C18.7315 295.221 11.5109 319.277 0.536327 328.241C-0.651146 329.198 0.229882 330.845 1.93448 330.807C4.25197 330.769 7.08658 330.443 9.65306 329.332C11.147 328.681 12.909 329.696 12.4877 331.018C11.1661 335.116 8.77203 341.092 5.22876 345.038C4.21366 346.168 5.45859 347.681 7.16319 347.412C10.2468 346.914 14.1157 345.976 17.3333 344.252C18.8081 343.467 20.7042 344.501 20.2829 345.861C18.8464 350.419 17.2567 356.778 17.2184 362.505C17.2184 364.037 19.7274 364.631 20.7425 363.328C22.7727 360.743 25.5116 357.544 28.0397 355.457C29.2655 354.461 31.3915 355.227 31.2957 356.625C30.6254 365.914 29.3613 392.977 36.5436 403.339C37.4055 404.584 39.7421 404.315 40.0868 402.917C40.7189 400.466 41.983 396.961 44.5686 393.283C45.4113 392.038 47.7671 392.364 48.0736 393.762C49.3185 399.163 53.149 408.816 64.9089 414.964C66.2879 415.692 68.1074 414.773 67.8392 413.451C67.2455 410.54 68.0116 407.993 68.8352 406.288C69.3523 405.216 71.0761 405.005 72.0528 405.848C76.841 409.965 83.1232 410.712 86.9346 410.732C88.4093 410.732 89.3478 409.448 88.5626 408.433C77.4539 393.896 77.4539 375.988 77.8944 369.362C77.9902 368.117 79.848 367.485 81.0547 368.289C83.6403 369.994 85.5364 372.234 86.8388 374.169C87.7198 375.49 90.1905 375.107 90.4204 373.633C92.374 361.088 87.3176 343.429 86.858 341.877C86.8196 341.801 86.8005 341.724 86.7622 341.647C84.1383 336.993 84.1191 332.243 86.6473 327.8C90.2672 321.422 94.4425 315.217 98.9051 309.183C100.342 307.23 102.142 304.127 105.896 304.855C109.477 305.564 109.784 308.973 110.09 311.195C111.144 318.741 111.776 326.459 109.516 333.871C106.49 343.927 102.64 353.809 98.9242 363.731C98.9242 363.731 97.2962 376.62 98.6178 382.022C99.9393 387.423 97.9091 393.494 97.0281 396.041C94.5382 403.339 103.138 410.425 99.9202 418.278C99.9202 418.278 98.5029 421.917 99.2498 427.356C100.016 432.815 106.068 445.494 118.709 443.923C131.331 442.353 131.331 433.408 131.829 426.15C132.346 418.91 132.078 417.09 124.512 406.02C116.928 394.931 122.501 364.363 122.501 364.363C126.159 356.836 130.833 349.558 135.985 342.586C141.884 334.58 145.81 326.153 147.687 317.055C148.07 315.14 147.381 312.42 151.307 312.861C158.834 313.704 164.81 310.984 170.9 308.168C174.003 306.751 177.508 306.081 180.879 307.805C184.863 309.835 183.273 312.669 182.354 315.332C178.37 326.823 178.925 332.416 182.718 340.728C184.384 344.348 182.775 357.391 182.718 361.432C182.545 378.957 178.198 389.261 178.198 389.261C177.087 394.241 175.727 399.048 178.236 404.086C180.362 408.395 182.584 410.923 189.345 413.241C193.118 414.256 199.266 413.241 199.266 413.241C203.824 412.225 206.256 408.299 207.425 403.492C210.087 392.594 205.758 382.634 202.924 372.503C198.385 356.242 193.692 344.693 199.591 328.509C201.258 323.893 207.923 316.27 207.942 310.084C207.961 305.966 210.891 299.358 215.871 301.312C219.414 302.691 223.341 307.077 221.943 312.344C221.119 315.408 218.304 320.139 224.777 322.763C230.753 325.195 236.058 322.878 239.429 318.09C243.183 312.765 253.372 311.788 250.097 303.533C253.679 305.008 256.341 301.235 260.535 302.806C266.913 305.2 268.254 302.02 267.411 297.5C266.224 291.199 261.11 286.583 256.992 281.546C253.238 276.988 249.197 272.831 246.784 267.335C242.225 256.954 244.945 247.78 248.718 237.878C253.104 226.367 253.928 214.435 245.252 203.498C249.254 201.641 252.53 203.767 255.92 203.632C267.258 203.115 272.295 195.301 267.316 185.725C266.645 184.403 264.558 183.579 265.496 181.741C271.989 169.1 265.305 156.172 266.32 143.32C266.913 135.966 270.572 129.339 270.648 122.195C270.686 119.59 272.353 116.621 266.798 114.993C262.623 113.748 263.236 109.075 264.347 106.164C267.105 98.9816 266.147 91.8185 266.243 83.2189C266.243 81.7824 264.04 81.1121 262.872 82.2038C260.727 84.1957 259.137 85.6704 257.777 87.2793C252.53 93.4656 246.477 98.0814 236.039 95.9555C231.385 95.017 227.688 97.775 223.188 98.407C222.038 93.5422 221.674 88.6583 219.338 83.985C218.725 82.74 216.542 82.6634 215.814 83.8701C212.002 90.1905 209.915 96.8173 207.31 103.291C206.869 104.383 207.042 106.068 207.865 106.911C209.378 108.501 211.409 107.179 212.902 106.509C219.434 103.578 225.639 101.433 233.856 101.184C240.253 100.993 242.857 102.812 246.477 105.149C240.98 108.941 230.6 106.106 229.508 107.926C225.313 114.936 215.584 105.149 213.037 112.657C215.373 114.898 220.43 114.821 222.632 119.035C218.955 118.288 215.833 115.204 213.037 117.713C204.973 124.914 203.958 117.502 201.449 114.151C195.512 106.221 197.025 97.1046 195.665 88.4667C194.535 81.227 194.401 73.8915 193.347 66.6517C192.85 63.2808 191.949 59.9674 185.859 59.4503C181.224 59.0864 188.157 56.405 184.863 54.8919C176.685 54.8919 169.464 59.2779 158.892 60.4462C163.986 58.167 167.146 56.7689 170.92 55.0643C164.599 54.279 159.409 54.4514 153.797 55.8495C145.427 57.9372 136.579 59.1055 127.998 55.8112C122.463 54.3939 116.928 52.9766 111.374 51.5402C106.624 50.142 100.514 46.7328 102.372 55.3324C99.02 56.3475 94.2509 59.3353 93.0826 61.1165C83.4296 73.6616 77.09 133.093 77.09 133.093V133.074ZM95.4767 270.935C94.9979 270.457 94.5765 269.959 94.1743 269.403C93.1401 267.967 90.3821 268.752 90.6502 270.38C90.8417 271.548 91.0524 272.717 91.2248 273.847C91.6079 276.605 91.5504 279.439 91.0716 282.216C90.7651 284.093 87.3176 283.978 87.2602 282.082C87.2219 280.416 87.0686 278.75 86.743 277.122C86.0918 273.732 84.732 270.514 84.2915 267.047C82.721 255.345 91.5312 243.662 89.75 231.979C88.6583 224.969 83.9276 219.319 81.5718 212.692C80.595 209.972 80.2119 204.533 84.4064 205.299C87.4134 205.854 89.999 211.523 91.3014 213.956C95.1128 221.1 97.1239 229.374 96.9323 237.686C96.6833 248.814 92.6996 260.267 95.4767 270.897V270.935ZM111.967 180.247C104.957 179.96 98.1581 179.902 91.3397 181.511C87.2602 182.488 84.3872 181.434 85.479 177.508C86.609 173.429 83.7935 171.034 78.7755 172.05C76.6878 172.471 74.581 172.835 71.5357 173.371C74.7534 165.557 81.1121 162.262 91.2248 164.561C97.5261 165.997 104.038 166.112 110.186 167.759C111.68 168.161 113.346 168.334 114.668 168.966C118.977 171.034 121.544 174.808 121.237 178.198C120.797 183.043 115.089 180.343 111.967 180.228V180.247ZM237.246 255.326C236.978 256.877 236.633 258.486 235.713 259.731C234.794 260.976 233.109 261.646 232.036 260.804C231.672 260.516 231.423 260.076 231.213 259.635C229.221 255.498 229.776 250.193 230.581 245.271C230.849 243.547 231.155 241.804 231.557 240.099C231.998 238.184 232.572 236.288 232.975 234.354C234.871 225.256 232.496 215.948 227.995 208.842C224.988 204.092 234.43 204.513 236.48 205.969C238.069 207.08 238.797 209.321 239.927 210.949C241.306 212.864 243.03 214.607 243.528 217.173C243.777 218.457 243.681 219.817 243.566 221.157C243.375 223.302 243.183 225.447 242.723 227.573C242.283 229.565 241.613 231.519 241.057 233.473C239.046 240.636 238.529 248.067 237.246 255.345V255.326ZM259.099 293.402C261.551 297.021 252.357 296.313 249.523 296.753C248.852 296.868 248.163 296.638 247.933 296.121C244.773 289.322 238.031 281.201 239.697 273.349C239.697 273.349 257.969 291.697 259.099 293.402ZM250.748 200.721C245.73 198.385 240.463 196.086 239.965 190.628C239.85 189.153 240.482 188.253 241.976 188.176C245.405 188.329 253.353 196.623 253.028 199.055C252.874 200.3 251.898 201.258 250.748 200.721Z" fill="#0B323D"/>
<path d="M111.737 48.9545C111.661 48.2076 111.431 46.7903 111.527 46.7711C118.613 45.7369 124.723 39.608 132.71 43.63C137.67 46.1391 137.938 40.2208 142.535 40.9487C151.786 42.4234 161.324 42.9405 170.785 43.3811C174.329 43.5534 175.65 45.0857 175.363 47.0392C174.999 49.4142 171.877 48.3991 169.866 48.6481C162.186 49.5866 154.391 44.9324 146.615 48.9162C148.185 51.0996 151.422 49.4142 153.663 51.1954C145.121 53.647 136.732 53.3788 128.343 53.2064C122.808 51.7891 117.273 50.3527 111.718 48.9354L111.737 48.9545Z" fill="#0B323D"/>
<path d="M170.728 40.8912C152.341 37.731 135.774 38.5163 119.169 40.8529C119.054 36.7542 122.674 37.0415 124.168 35.605C125.202 24.8412 129.358 14.5944 132.595 4.2136C133.227 2.22171 135.257 1.01508 138.072 0.478807C151.345 -2.03021 164.637 5.72667 165.672 16.5288C166.227 22.5428 167.166 28.5568 167.932 34.5899C164.369 35.4901 163.086 31.9852 160.06 32.6172C161.803 35.8157 166.802 36.1605 170.728 40.8912Z" fill="#0B323D"/>
<path d="M125.796 147.706C143.378 144.718 158.26 132.901 161.688 130.028C162.167 129.626 162.473 129.071 162.569 128.439L169.483 80.3268C169.617 79.3883 169.234 78.4307 168.468 77.8561C154.678 67.6285 136.732 65.9047 136.732 65.9047C136.732 65.9047 119.054 62.2657 102.965 67.9733C102.065 68.2989 101.433 69.1033 101.299 70.0418L94.385 118.154C94.2892 118.786 94.4233 119.398 94.768 119.935C97.2196 123.708 108.156 139.413 124.148 147.476C124.646 147.725 125.24 147.821 125.796 147.725V147.706Z" fill="#1FA0C2"/>
<path d="M125.355 150.618C124.493 150.618 123.631 150.426 122.846 150.024C106.432 141.769 95.3426 126.102 92.3547 121.486C91.6269 120.375 91.3396 119.054 91.5312 117.732L98.4453 69.6204C98.7326 67.6093 100.092 65.9239 101.989 65.2536C118.019 59.5652 135.238 62.6679 137.134 63.051C139.068 63.2617 156.421 65.3493 170.153 75.5386C171.762 76.7261 172.586 78.718 172.298 80.729L165.384 128.822C165.193 130.143 164.542 131.35 163.526 132.193C159.351 135.717 144.297 147.457 126.274 150.522C125.968 150.579 125.661 150.598 125.374 150.598L125.355 150.618ZM97.2195 118.46C99.3838 121.754 110.052 137.134 125.374 144.872C142.171 141.999 156.708 130.45 159.715 127.921L166.591 80.0778C153.605 70.5397 136.598 68.7968 136.425 68.7777L136.119 68.7394C135.946 68.7011 119.13 65.3685 104.095 70.6355L97.2195 118.479V118.46Z" fill="white"/>
<path d="M166.361 106.375L147.17 98.8859L147.974 93.4465L167.166 100.935L166.361 106.375Z" fill="white"/>
</g>
<defs>
<clipPath id="clip0_4_309">
<rect width="270.916" height="444" fill="white"/>
</clipPath>
</defs>
</svg>
