<svg width="440" height="440" viewBox="0 0 440 440" fill="none" xmlns="http://www.w3.org/2000/svg">
<g clip-path="url(#clip0_3_5)">
<path d="M278.04 359.994C271.047 359.994 264.074 359.994 257.081 359.994C255.298 359.994 253.594 360.053 252.321 361.717C251.968 353.005 252.615 344.471 251.949 335.975C251.596 331.414 250.754 327.048 248.54 322.977C246.914 319.982 244.995 317.241 242.624 314.833C241.136 313.326 239.471 311.975 237.708 310.781C234.045 308.315 230.186 306.298 225.661 305.887C225.445 305.437 225.054 305.633 224.721 305.652C217.649 304.204 211.028 305.652 204.701 308.824C204.231 308.726 203.839 308.784 203.722 309.352C203.311 309.607 202.899 309.842 202.488 310.096C202.253 309.959 202.214 310.155 202.135 310.311L198.1 313.424C197.924 313.463 197.787 313.541 197.845 313.757C193.653 317.848 190.245 322.448 188.541 328.164C187.816 330.592 187.229 333.058 187.189 335.564C187.091 345.508 187.15 355.452 187.131 365.397C187.131 365.827 187.268 366.297 186.895 366.826C186.327 365.651 185.368 365.142 184.251 365.064C180.647 364.809 177.023 365.064 173.399 364.888C171.871 364.809 172.165 364.379 172.145 363.576C172.087 361.325 171.577 360.64 169.521 360.346C164.721 359.641 159.883 360.072 155.064 360.092C152.577 360.092 152.244 360.816 152.067 363.459C151.989 364.849 151.538 366.219 152.067 367.628C152.224 368.059 152.204 368.666 151.695 369.038C151.48 369.194 151.343 369.449 151.617 369.684C152.479 370.428 152.028 371.446 152.107 372.326C152.244 374.088 153.086 375.008 154.868 375.008C159.354 375.008 163.84 375.008 168.306 375.008C171.146 375.008 172.145 374.088 172.087 371.211C172.067 370.095 172.478 369.977 173.419 369.977C177.023 370.017 180.608 369.977 184.212 369.997C184.956 369.997 185.642 369.997 186.132 369.273C186.308 369.018 186.543 368.568 186.993 368.822C187.307 368.999 187.15 369.39 187.15 369.684C187.17 372.229 187.15 374.793 187.209 377.338C187.229 379.119 188.149 379.98 189.971 379.98C196.278 379.98 202.586 379.98 208.893 379.98C222.233 379.98 235.573 379.98 248.932 379.98C250.793 379.98 251.361 379.413 251.988 377.67C252.497 376.3 251.949 374.871 252.477 373.149C253.045 374.95 254.299 374.989 255.533 374.989C263.29 374.989 271.067 374.93 278.824 375.028C280.783 375.047 282.252 374.127 282.252 371.524C282.252 369.077 282.232 366.63 282.252 364.183C282.291 360.894 281.488 359.974 278.001 359.974L278.04 359.994ZM167.17 369.214C167.111 369.801 166.974 370.016 166.367 370.016C163.546 369.997 160.745 369.997 157.924 370.016C157.317 370.016 157.043 369.84 157.141 369.233C157.141 369.175 157.141 369.136 157.141 369.077C157.01 366.362 158.316 365.005 161.058 365.005H162.312C162.684 365.005 163.037 365.005 163.409 365.005C167.542 365.005 167.542 365.005 167.19 369.214H167.17ZM245.778 375.028C237.081 374.969 228.364 374.989 219.667 374.989C210.97 374.989 202.253 374.969 193.556 375.008C192.498 375.008 192.165 374.812 192.165 373.677C192.204 360.816 192.086 347.955 192.243 335.094C192.302 330.494 194.065 326.265 196.572 322.409C200.529 316.36 206.21 312.582 213.085 310.664C217.257 309.509 221.547 309.861 225.759 310.664C230.088 311.505 234.123 313.463 237.355 316.223C241.018 319.375 243.937 323.329 245.484 328.203C246.856 332.471 247.267 336.738 247.247 341.143C247.247 351.929 247.228 362.695 247.267 373.481C247.267 374.656 247.032 375.028 245.778 375.028ZM273.535 369.997C267.815 369.997 262.076 369.997 256.356 369.997C254.887 369.997 253.476 370.134 252.321 371.896V362.969C253.574 365.553 255.69 364.986 257.61 364.986C263.76 364.986 269.891 365.025 276.042 364.986C277.041 364.986 277.335 365.221 277.335 366.258C277.315 370.016 277.335 370.016 273.555 370.016L273.535 369.997Z" fill="#231F20"/>
<path d="M282.291 364.203C282.35 360.914 281.547 359.994 278.04 359.994C271.047 359.994 264.074 359.994 257.081 359.994C255.318 359.994 253.594 360.053 252.321 361.717C251.968 353.005 252.615 344.49 251.949 335.975C251.576 331.414 250.734 327.048 248.54 322.996C246.914 320.001 244.995 317.261 242.624 314.853C241.136 313.346 239.471 311.975 237.708 310.801C234.064 308.334 230.186 306.318 225.681 305.926C225.445 305.457 225.073 305.672 224.721 305.692C217.649 304.243 211.048 305.692 204.701 308.863C204.231 308.784 203.839 308.824 203.742 309.391C203.33 309.626 202.919 309.881 202.507 310.135C202.272 309.979 202.233 310.194 202.155 310.331C200.803 311.368 199.471 312.406 198.12 313.424C197.943 313.463 197.826 313.541 197.865 313.757C193.653 317.868 190.265 322.448 188.561 328.164C187.836 330.592 187.248 333.078 187.209 335.583C187.131 345.528 187.17 355.472 187.17 365.416C187.17 365.847 187.287 366.297 186.935 366.826C186.367 365.651 185.407 365.123 184.271 365.064C180.666 364.809 177.043 365.064 173.419 364.868C171.891 364.809 172.185 364.359 172.165 363.557C172.106 361.305 171.597 360.62 169.56 360.327C164.761 359.642 159.922 360.072 155.104 360.092C152.596 360.092 152.283 360.816 152.107 363.439C152.028 364.849 151.578 366.199 152.107 367.609C152.263 368.039 152.244 368.646 151.734 369.018C151.519 369.175 151.382 369.429 151.656 369.664C152.518 370.408 152.067 371.426 152.126 372.307C152.244 374.069 153.125 374.989 154.888 375.008C159.374 375.008 163.86 375.008 168.326 375.008C171.166 375.008 172.165 374.088 172.126 371.211C172.106 370.095 172.518 369.977 173.458 369.977C177.043 370.036 180.647 369.977 184.231 369.997C184.976 369.997 185.661 369.997 186.132 369.273C186.308 369.018 186.563 368.548 186.993 368.803C187.287 368.979 187.15 369.371 187.15 369.664C187.17 372.229 187.15 374.773 187.209 377.318C187.229 379.1 188.149 379.961 189.971 379.961C196.278 379.961 202.586 379.98 208.893 379.98H248.932C250.793 379.98 251.341 379.413 251.988 377.651C252.497 376.281 251.929 374.852 252.477 373.129C253.045 374.93 254.28 374.969 255.533 374.969C263.29 374.969 271.067 374.91 278.824 375.028C280.802 375.047 282.252 374.108 282.252 371.524C282.252 369.077 282.232 366.61 282.252 364.183L282.291 364.203ZM167.19 369.214C167.131 369.821 166.994 370.017 166.386 369.997C163.566 369.977 160.765 369.977 157.944 369.997C157.337 369.997 157.062 369.821 157.16 369.214V369.057C157.03 366.343 158.329 364.986 161.058 364.986H163.409C167.542 364.986 167.542 364.986 167.19 369.194V369.214ZM245.778 375.028C237.061 374.969 228.364 374.989 219.667 374.989C210.97 374.989 202.253 374.969 193.556 375.008C192.498 375.008 192.184 374.813 192.184 373.677C192.243 360.816 192.126 347.955 192.263 335.074C192.321 330.474 194.084 326.246 196.611 322.409C200.568 316.36 206.229 312.582 213.124 310.664C217.297 309.489 221.606 309.861 225.798 310.664C230.127 311.486 234.162 313.443 237.375 316.223C241.038 319.375 243.956 323.329 245.504 328.203C246.875 332.471 247.286 336.738 247.267 341.143C247.267 351.909 247.247 362.695 247.286 373.481C247.286 374.656 247.051 375.028 245.798 375.028H245.778ZM273.535 369.977H256.356C254.887 369.977 253.476 370.134 252.321 371.876V362.95C253.574 365.534 255.69 364.966 257.61 364.966C263.741 364.986 269.891 365.005 276.042 364.966C277.061 364.966 277.335 365.201 277.335 366.238C277.315 369.997 277.335 369.997 273.555 369.997L273.535 369.977Z" fill="#404140"/>
<path d="M167.17 369.214C167.111 369.821 166.974 370.017 166.367 369.997C163.546 369.977 160.745 369.977 157.924 369.997C157.317 369.997 157.043 369.821 157.141 369.214V369.057C157.01 366.343 158.31 364.986 161.039 364.986H163.389C167.523 364.986 167.523 364.986 167.17 369.194V369.214Z" fill="#ABABAB"/>
<path d="M247.267 373.501C247.267 374.675 247.032 375.047 245.778 375.047C237.061 374.989 228.364 375.008 219.667 375.008C210.97 375.008 202.253 374.989 193.556 375.028C192.498 375.028 192.184 374.832 192.184 373.697C192.243 360.836 192.126 347.975 192.263 335.094C192.321 330.494 194.084 326.265 196.611 322.429C200.568 316.38 206.229 312.602 213.124 310.683C217.297 309.509 221.606 309.881 225.798 310.683C230.127 311.505 234.162 313.463 237.375 316.243C241.038 319.394 243.956 323.349 245.504 328.223C246.875 332.49 247.286 336.758 247.267 341.162C247.267 351.929 247.247 362.715 247.286 373.501H247.267Z" fill="#ABABAB"/>
<path d="M183.448 321.704C182.566 321.176 181.607 320.96 180.608 320.921C180.529 320.745 180.412 320.667 180.294 320.628C180.098 320.569 179.863 320.667 179.648 320.686C179.413 320.569 179.217 320.393 178.962 320.354C175.162 319.649 171.46 318.494 167.797 317.359C164.075 316.204 160.471 314.755 156.808 313.463C156.612 313.091 156.181 313.13 155.868 312.974C153.948 312.191 152.009 311.486 150.109 310.625C144.683 308.197 139.296 305.652 134.222 302.501C134.242 302.305 134.222 302.188 133.987 302.325C132.694 301.874 131.558 301.13 130.481 300.308C130.52 300.073 130.442 299.995 130.226 300.093C128.601 299.212 126.935 298.37 125.486 297.176C125.662 296.667 125.349 296.452 124.918 296.334C123.88 296.569 123.331 295.688 122.626 295.258C121.137 294.299 119.727 293.222 118.277 292.184C118.454 291.617 118.199 291.538 117.729 291.656C116.945 291.401 116.26 290.951 115.751 290.286C115.809 290.051 115.731 290.031 115.535 290.149C114.928 289.738 114.262 289.366 113.674 288.896C111.5 287.056 109.306 285.216 107.151 283.356C105.29 281.751 103.429 280.146 101.666 278.462C95.4569 272.609 89.7371 266.306 84.2524 259.807C83.0771 258.397 81.8234 258.28 80.4522 259.65C75.1438 264.975 69.6786 270.143 64.5465 275.663C64.1351 275.859 63.8217 276.172 63.6258 276.563C63.4104 276.798 63.1949 276.994 62.9794 277.209C61.8629 277.992 61.7062 278.932 62.4701 280.048C62.5876 280.224 62.666 280.42 62.7835 280.596C67.1517 285.764 71.5983 290.853 76.4366 295.591C80.6873 299.78 84.9772 303.91 89.5217 307.806C89.5804 307.962 89.6392 308.138 89.8743 308.041C90.8145 308.765 91.7352 309.47 92.6754 310.194C98.1406 314.501 103.743 318.631 109.541 322.448C114.379 325.6 119.394 328.536 124.526 331.238C128.385 333.273 132.264 335.329 136.24 337.149C139.825 338.794 143.566 340.125 147.268 341.573C150.187 342.709 153.086 343.942 156.063 344.921C159.844 346.154 163.664 347.27 167.503 348.268C170.147 348.953 172.772 349.717 175.456 350.265C176.239 350.421 177.003 350.559 177.807 350.676C178.727 350.911 179.648 351.224 180.451 350.813C180.451 349.404 180.451 347.975 180.451 346.565C180.451 342.728 180.471 338.892 180.51 335.055C180.549 331.844 181.411 328.81 182.802 325.952C183.272 324.973 183.801 324.014 184.388 323.075C184.427 322.389 184.055 321.959 183.468 321.724L183.448 321.704ZM176.827 328.086C176.102 330.513 175.515 332.98 175.475 335.485C175.436 338.755 175.417 342.004 175.436 345.254C174.418 344.96 173.399 344.666 172.341 344.51C168.659 343.962 165.133 342.611 161.529 341.573C160.706 341.221 160.823 340.653 161.156 340.027C162.057 337.463 161.666 336.347 159.648 335.701C158.042 335.505 157.16 336.268 156.945 337.834C156.377 338.402 156.592 339.498 155.593 339.772C155.28 339.655 155.084 339.263 154.692 339.322C151.911 337.952 148.855 337.247 145.995 336.053C141.568 334.174 137.063 332.471 132.812 330.161C132.616 330.102 132.401 330.063 132.205 330.004C132.166 329.789 132.146 329.593 132.107 329.397C132.342 328.517 133.243 327.929 133.125 326.911C133.654 326.265 133.498 325.639 133.047 325.032C131.265 323.114 129.227 323.76 128.248 326.559V326.618C128.013 326.853 127.739 327.048 127.484 327.264C124.546 326.011 121.921 324.249 119.159 322.683C115.045 320.354 111.206 317.691 107.308 315.049C105.467 313.815 105.506 313.776 106.603 311.956C107.915 309.842 107.347 308.432 104.957 307.884C104.703 307.806 104.468 307.806 104.311 308.06C103.625 308.236 103.214 308.745 102.842 309.293C102.47 309.548 102.235 309.881 102.117 310.311C101.627 310.644 101.216 310.84 100.648 310.311C100.001 309.705 99.1983 309.254 98.4736 308.726C98.2189 308.354 97.8859 308.06 97.4354 307.904C97.024 307.512 96.6322 307.121 96.2013 306.749C91.2846 302.618 86.4267 298.429 81.7255 294.064C81.7647 293.868 81.8038 293.653 81.843 293.457C82.5482 293.144 83.0183 292.596 83.3905 291.91C84.0761 291.421 84.0761 290.736 83.939 290.012C83.8606 288.994 83.2142 288.465 82.2936 288.211C81.8234 288.211 81.3337 288.211 80.8636 288.211C80.2368 288.7 79.6099 289.189 78.9831 289.679C77.5336 290.971 77.3377 289.033 76.4954 288.739C73.5963 285.725 70.7756 282.612 68.0724 279.402C67.8765 278.951 68.2683 278.775 68.4837 278.521C72.6561 274.39 76.8676 270.28 80.942 266.071C82.0781 264.896 82.607 265.19 83.508 266.267C90.3052 274.273 97.4941 281.849 105.565 288.602C113.028 294.866 121.098 300.21 129.404 305.261C138.16 310.585 147.445 314.775 156.867 318.69C161.881 320.765 167.17 322.155 172.381 323.721C174.222 324.269 176.102 324.699 177.983 325.11C177.571 326.07 177.199 327.088 176.886 328.125L176.827 328.086Z" fill="#404140"/>
<path d="M177.924 325.052C177.513 326.011 177.14 327.029 176.827 328.066C176.102 330.494 175.515 332.96 175.475 335.466C175.436 338.735 175.417 341.984 175.436 345.234C174.418 344.94 173.399 344.647 172.341 344.49C168.659 343.942 165.133 342.591 161.528 341.554C160.706 341.201 160.823 340.634 161.156 340.007C162.057 337.443 161.666 336.327 159.648 335.681C158.042 335.485 157.16 336.249 156.945 337.815C156.377 338.383 156.592 339.479 155.593 339.753C155.28 339.635 155.084 339.244 154.692 339.303C151.911 337.932 148.855 337.228 145.995 336.033C141.568 334.154 137.063 332.451 132.812 330.141C132.616 330.083 132.401 330.043 132.205 329.985C132.165 329.769 132.146 329.574 132.107 329.378C132.342 328.497 133.243 327.91 133.125 326.892C133.654 326.246 133.497 325.619 133.047 325.013C131.264 323.094 129.227 323.74 128.248 326.539V326.598C128.013 326.833 127.739 327.029 127.484 327.244C124.546 325.991 121.921 324.229 119.159 322.663C115.045 320.334 111.206 317.672 107.308 315.029C105.467 313.796 105.506 313.757 106.603 311.936C107.915 309.822 107.347 308.413 104.957 307.864C104.703 307.786 104.468 307.786 104.311 308.041C103.625 308.217 103.214 308.726 102.842 309.274C102.469 309.528 102.234 309.861 102.117 310.292C101.627 310.625 101.216 310.82 100.648 310.292C100.001 309.685 99.1982 309.235 98.4735 308.706C98.2188 308.334 97.8858 308.041 97.4353 307.884C97.0239 307.492 96.6322 307.101 96.2012 306.729C91.2845 302.599 86.4266 298.409 81.7254 294.044C81.7646 293.848 81.8038 293.633 81.8429 293.437C82.5481 293.124 83.0182 292.576 83.3904 291.891C84.076 291.401 84.076 290.716 83.9389 289.992C83.8605 288.974 83.2141 288.446 82.2935 288.191C81.8233 288.191 81.3336 288.191 80.8635 288.191C80.2367 288.68 79.6099 289.17 78.983 289.659C77.5335 290.951 77.3376 289.013 76.4953 288.72C73.5962 285.705 70.7755 282.592 68.0723 279.382C67.8764 278.932 68.2682 278.756 68.4837 278.501C72.656 274.371 76.8675 270.26 80.9419 266.051C82.078 264.877 82.6069 265.17 83.5079 266.247C90.3051 274.253 97.494 281.829 105.564 288.583C113.028 294.847 121.098 300.191 129.404 305.241C138.16 310.566 147.444 314.755 156.866 318.67C161.881 320.745 167.17 322.135 172.38 323.701C174.222 324.249 176.102 324.68 177.983 325.091L177.924 325.052Z" fill="#ABABAB"/>
<path d="M196.709 122.857V122.837C196.337 122.309 195.749 121.956 195.083 121.839C194.927 121.839 194.77 121.858 194.613 121.917C194.476 121.878 194.359 121.858 194.222 121.839C193.36 121.78 192.85 122.407 192.4 123.092C190.304 126.42 188.247 129.767 186.171 133.095C184.094 136.462 181.979 139.79 179.883 143.137C176.788 148.109 173.673 153.062 170.578 158.034C168.208 161.832 165.858 165.649 163.487 169.446C161.509 172.657 159.452 175.848 157.513 179.097C155.299 182.777 152.91 186.379 150.696 190.04C148.816 193.172 146.798 196.206 144.878 199.319C142.743 202.764 140.569 206.15 138.414 209.576C132.91 218.385 127.425 227.214 121.94 236.042C121.49 236.766 120.452 237.373 120.393 237.804C120.158 239.389 118.963 240.368 118.336 241.68C117.024 244.46 115.182 246.965 113.537 249.549C110.403 254.463 107.425 259.454 104.389 264.407C103.469 265.934 102.489 267.402 101.666 268.968C101.02 270.201 101.49 271.63 102.705 272.276C102.763 272.296 102.783 272.335 102.842 272.335L109.384 278.677C109.874 279.147 110.501 279.382 111.128 279.382C111.754 279.382 112.44 279.128 112.93 278.619C113.126 278.423 113.282 278.188 113.4 277.934C113.459 277.875 113.498 277.816 113.537 277.738C114.928 275.408 116.456 273.138 117.886 270.828C121.509 265.092 125.075 259.317 128.718 253.582C130.383 250.978 132.166 248.433 133.733 245.791C136.984 240.388 140.216 234.985 143.507 229.621C143.977 228.838 144.565 228.838 144.918 229.523C145.682 230.972 147.151 231.598 148.287 232.616C154.849 238.509 162.018 243.52 169.834 247.611C177.356 251.546 185.211 254.619 193.418 256.772C194.339 257.007 195.162 256.89 195.769 256.518C196.553 256.087 197.081 255.265 197.081 254.306V244.871C197.081 244.753 197.081 244.636 197.062 244.538C197.219 243.539 196.69 242.698 195.554 242.15C193.732 241.269 191.753 240.701 189.853 240.153C187.522 239.468 185.289 238.587 183.095 237.667C175.005 234.261 167.62 229.621 160.823 224.101C157.905 221.713 154.966 219.344 152.635 216.349C152.146 215.703 151.813 215.312 152.694 214.764C152.968 214.607 153.125 214.196 153.301 213.883C157.082 207.893 160.863 201.883 164.604 195.893C170.01 187.26 175.417 178.588 180.803 169.936C185.975 161.616 191.127 153.257 196.259 144.918C196.357 144.742 196.474 144.586 196.592 144.409C196.592 144.409 196.611 144.37 196.631 144.351C196.631 144.351 196.631 144.331 196.65 144.311C196.67 144.253 196.709 144.194 196.729 144.155C196.807 143.979 196.925 143.803 196.983 143.607C197.023 143.548 197.042 143.489 197.042 143.431C197.062 143.391 197.062 143.352 197.081 143.313C197.121 143.157 197.14 142.98 197.14 142.804V124.325C197.14 123.777 196.983 123.268 196.67 122.876L196.709 122.857ZM192.145 142.608C183.644 156.213 175.142 169.857 166.661 183.462C160.314 193.622 153.967 203.762 147.64 213.922C146.191 216.251 146.112 216.31 147.934 218.287C154.124 225.041 160.98 230.952 168.913 235.631C176.259 239.977 183.918 243.52 192.086 246.006V251.428C184.134 249.197 176.592 245.967 169.403 241.934C160.765 237.099 152.929 231.227 146.191 223.944C145.192 222.887 144.036 222.359 142.704 222.32C141.529 222.281 141.588 223.573 141.117 224.297C138.551 228.427 136.103 232.656 133.38 236.669C131.01 240.192 128.875 243.872 126.602 247.455C122.313 254.189 118.277 261.118 113.909 267.813C113.067 269.085 112.068 270.338 111.343 271.611C111.108 272.022 110.873 272.433 110.657 272.864L106.975 269.281C107.915 267.911 108.816 266.502 109.698 265.073C113.713 258.534 117.846 252.055 121.94 245.536C124.173 241.993 126.387 238.43 128.581 234.848C131.637 229.876 134.673 224.845 137.885 219.971C142.156 213.491 146.073 206.796 150.304 200.297C151.715 198.124 153.047 195.873 154.379 193.642C158.022 187.612 161.842 181.681 165.544 175.691C170.578 167.606 175.573 159.522 180.588 151.437C184.427 145.251 188.423 139.163 192.165 132.899V142.589L192.145 142.608Z" fill="#404140"/>
<path d="M147.621 213.941C146.171 216.271 146.093 216.33 147.915 218.307C154.105 225.06 160.96 230.972 168.894 235.651C176.239 239.996 183.898 243.539 192.067 246.026V251.448C184.114 249.216 176.572 245.986 169.383 241.954C160.745 237.119 152.91 231.246 146.171 223.964C145.172 222.907 144.017 222.378 142.685 222.339C141.509 222.3 141.568 223.592 141.098 224.316C138.532 228.447 136.083 232.675 133.36 236.688C130.99 240.212 128.855 243.892 126.583 247.474C122.293 254.208 118.258 261.138 113.89 267.833C113.047 269.105 112.048 270.358 111.324 271.63C111.088 272.041 110.853 272.452 110.638 272.883L106.955 269.301C107.896 267.931 108.797 266.521 109.678 265.092C113.694 258.554 117.827 252.074 121.921 245.556C124.154 242.013 126.367 238.45 128.561 234.868C131.617 229.895 134.653 224.865 137.866 219.99C142.136 213.511 146.054 206.816 150.285 200.317C151.695 198.144 153.027 195.893 154.359 193.661C158.003 187.632 161.822 181.701 165.525 175.711C170.559 167.626 175.554 159.541 180.568 151.457C184.408 145.271 188.404 139.183 192.145 132.919V142.608C183.644 156.213 175.142 169.857 166.661 183.462C160.314 193.622 153.967 203.762 147.64 213.922L147.621 213.941Z" fill="#ABABAB"/>
<path d="M196.69 122.837C196.318 122.309 195.73 121.956 195.064 121.839C195.828 121.78 196.376 122.25 196.69 122.837Z" fill="#40403F"/>
<path d="M197.121 143.313C197.16 143.157 197.179 142.98 197.179 142.804V142.256C197.179 142.256 197.179 142.413 197.179 142.511C197.219 142.785 197.179 143.059 197.121 143.313Z" fill="#40403F"/>
<path d="M337.687 268.694C337.687 268.694 337.648 268.616 337.628 268.557C336.805 266.893 335.689 265.405 334.749 263.82C331.712 258.769 328.578 253.738 325.444 248.747C321.761 242.893 318.04 237.06 314.357 231.207C309.734 223.866 305.131 216.467 300.528 209.087C298.099 205.172 295.67 201.257 293.241 197.341C289.225 190.901 285.21 184.48 281.194 178.06C279.803 175.848 278.412 173.616 277.022 171.404C276.904 171.208 276.767 171.032 276.61 170.875C276.258 170.366 275.709 169.994 275.063 169.877L262.076 167.332C260.9 167.097 259.784 167.724 259.333 168.742C259.294 168.8 259.275 168.84 259.255 168.898C259.235 168.977 259.196 169.035 259.177 169.114C259.177 169.192 259.137 169.27 259.118 169.349C259.098 169.486 259.079 169.603 259.079 169.76C259.079 169.916 259.079 170.092 259.098 170.269C259.118 170.366 259.157 170.464 259.177 170.562C259.177 170.621 259.196 170.66 259.235 170.719C259.275 170.817 259.314 170.915 259.392 171.012C259.47 171.169 259.588 171.306 259.666 171.443C262.017 175.123 264.328 178.862 266.659 182.562C270.479 188.689 274.318 194.836 278.138 200.982C280.92 205.426 283.642 209.928 286.483 214.333C287.227 215.488 287.012 216.271 286.15 217.093C284.073 219.09 282.056 221.184 279.862 223.044C270.695 230.796 260.489 236.747 248.991 240.447C247.267 240.995 245.406 241.288 243.839 242.247C243.271 242.58 242.624 242.972 242.389 243.598C242.135 243.99 241.998 244.44 241.998 244.929V254.365C241.998 255.735 243.134 256.87 244.505 256.87C244.622 256.87 244.74 256.87 244.838 256.851H244.857C245.151 256.851 245.445 256.812 245.759 256.733C250.949 255.5 255.944 253.738 260.881 251.722C273.437 246.554 284.524 239.174 294.279 229.798C295.278 228.838 295.65 229.191 296.218 230.111C299.45 235.357 302.741 240.564 305.993 245.81C312.457 256.166 318.921 266.521 325.385 276.876C325.718 277.405 326.071 277.914 326.443 278.423C326.737 278.834 327.089 279.069 327.481 279.167C327.853 279.363 328.265 279.46 328.657 279.46C329.283 279.46 329.91 279.226 330.4 278.756L337.373 272.002C338.255 271.141 338.372 269.751 337.667 268.772L337.687 268.694ZM328.754 273.275C326.894 270.182 325.052 267.108 323.152 264.074C318.177 256.127 313.182 248.198 308.187 240.27C304.818 234.868 301.468 229.426 298.099 224.003C297.531 223.083 296.825 222.339 295.552 222.535C294.71 222.281 294.299 222.907 293.789 223.435C282.702 235.142 269.519 243.677 254.319 249.118C251.89 249.98 249.422 250.665 246.973 251.428V246.026C246.973 246.026 247.032 246.026 247.051 246.006C254.182 243.794 261.116 241.171 267.502 237.217C271.478 234.75 275.552 232.44 279.313 229.621C283.799 226.274 287.717 222.3 291.576 218.268C293.084 216.682 293.162 216.056 291.987 214.313C288.873 209.791 286.267 204.976 283.231 200.395C279.333 194.483 275.866 188.258 271.968 182.307C270.029 179.352 268.187 176.298 266.326 173.283L273.339 174.653C273.594 174.928 273.848 175.202 274.064 175.534C277.668 181.427 281.331 187.24 284.974 193.113C293.143 206.209 301.331 219.325 309.48 232.421C316.982 244.479 324.484 256.538 332.006 268.596C332.202 268.909 332.398 269.222 332.594 269.536L328.735 273.255L328.754 273.275Z" fill="#404140"/>
<path d="M332.613 269.536L328.755 273.255C326.894 270.162 325.052 267.089 323.152 264.055C318.177 256.107 313.182 248.179 308.187 240.251C304.818 234.848 301.468 229.406 298.099 223.984C297.531 223.064 296.825 222.32 295.552 222.515C294.71 222.261 294.299 222.887 293.789 223.416C282.702 235.122 269.519 243.657 254.319 249.099C251.89 249.96 249.422 250.645 246.973 251.409V246.006C246.973 246.006 247.032 246.006 247.051 245.986C254.182 243.774 261.116 241.151 267.502 237.197C271.478 234.731 275.552 232.421 279.313 229.602C283.799 226.254 287.717 222.281 291.576 218.248C293.084 216.662 293.162 216.036 291.987 214.294C288.873 209.772 286.267 204.956 283.231 200.376C279.333 194.464 275.866 188.239 271.968 182.288C270.029 179.332 268.187 176.278 266.326 173.264L273.339 174.634C273.594 174.908 273.848 175.182 274.064 175.515C277.668 181.407 281.331 187.221 284.974 193.094C293.143 206.19 301.331 219.305 309.48 232.401C316.982 244.46 324.484 256.518 332.006 268.576C332.202 268.89 332.398 269.203 332.594 269.516L332.613 269.536Z" fill="#ABABAB"/>
<path d="M259.02 169.72C259.02 169.877 259.02 170.053 259.04 170.229C259.02 170.112 259 169.975 259 169.857C259 169.818 259 169.779 259 169.74L259.02 169.72Z" fill="#404140"/>
<path d="M259.04 170.21C259.02 170.092 259 169.955 259 169.838C259 169.799 259 169.76 259 169.72C259 169.877 259 170.053 259.02 170.229L259.04 170.21Z" fill="#40403F"/>
<path d="M231.929 86.6422C231.459 79.5559 226.699 75.0731 218.923 75.0731C212.439 75.0731 207.013 81.0632 207.209 87.4839C206.699 93.8264 213.261 100.071 219.667 100.032C226.053 99.9926 232.458 94.3941 231.929 86.6422ZM219.745 95.0009C215.828 95.1184 212.106 91.8688 212.165 87.3469C212.223 83.1578 215.749 80.0061 219.569 79.9865C223.722 79.967 227.365 83.2361 226.895 87.4839C227.306 92.0842 223.663 94.8639 219.745 95.0009Z" fill="#404140"/>
<path d="M247.189 90.3224C246.855 89.8134 246.934 89.2457 246.934 88.6976C246.934 87.4839 246.973 86.3094 246.934 85.0957C246.777 81.8266 245.719 78.8512 244.289 75.8953C241.175 69.4941 236.513 64.8156 229.853 62.1729C227.581 61.292 225.171 60.9983 222.84 60.3328C222.625 59.863 222.233 60.0392 221.9 60.0587C220.666 60.4111 219.393 60.3132 218.119 60.3132C213.712 60.3328 209.736 61.7814 205.935 63.8564C205.7 63.7193 205.661 63.9151 205.583 64.0717C205.073 64.4045 204.564 64.7373 204.055 65.07C203.82 64.9722 203.761 65.1288 203.722 65.3049C199.432 68.3587 196.337 72.3521 194.378 77.2264C194.182 77.2264 194.065 77.2851 194.143 77.5005C193.771 79.3014 192.909 80.9457 192.792 82.825C192.243 83.6863 192.654 84.7434 192.243 85.6439V88.7759C192.067 89.5589 192.263 90.2637 192.615 90.9488C192.576 91.5556 192.654 92.1233 192.752 92.7106C193.046 94.492 193.947 96.0971 194.104 97.8981C194.026 97.8981 193.947 97.9372 193.869 97.9568C193.947 97.9568 194.006 97.9568 194.084 97.9764C194.692 98.2896 194.868 98.8964 195.181 99.4445C196.69 102.126 197.963 104.984 200.529 106.903C201.979 107.96 202.253 109.33 202.253 111.072C202.194 174.105 202.214 237.138 202.214 300.171V300.289C202.214 301.013 202.155 301.776 202.272 302.462C202.468 303.558 202.919 304.556 204.172 304.693C205.054 304.086 205.975 303.558 206.934 303.049C208.854 302.051 210.93 301.248 213.105 300.641C217.277 299.467 221.586 299.839 225.778 300.641C228.09 301.072 230.303 301.855 232.36 302.892C233.398 303.401 234.378 303.969 235.298 304.634C236.689 304.4 237.238 303.362 237.238 301.072V300.426C237.238 258.202 237.238 158.719 237.257 116.475C237.257 116.26 237.257 116.045 237.238 115.829C237.355 113.813 237.14 111.816 237.218 109.82C237.257 108.939 237.453 108.293 238.119 107.666C241.057 104.965 243.31 101.715 244.916 98.0547C245.954 95.6665 246.366 93.1217 246.953 90.616C247.13 90.5769 247.267 90.5181 247.208 90.2832L247.189 90.3224ZM240.646 95.921C240.313 96.2733 240 96.6453 240.137 97.1934C239.49 98.3287 238.824 99.4837 238.178 100.619C237.864 100.717 237.649 100.913 237.649 101.265C236.865 102.479 235.494 103.144 234.73 104.397C234.358 104.495 233.947 104.554 233.79 105.004C233.379 105.337 232.967 105.67 232.536 106.002C232.301 105.924 232.243 106.081 232.164 106.257C231.772 106.492 231.361 106.746 230.95 106.981C230.715 106.844 230.675 107.04 230.597 107.177C230.303 107.373 229.99 107.568 229.696 107.764C226.758 109.506 226.503 110.368 228.423 112.266C229.246 113.363 230.205 112.697 231.048 112.345C231.929 112.012 232.282 112.129 232.243 113.147C232.184 114.381 232.164 115.653 232.243 116.886V297.626C230.186 296.706 228.011 296.08 225.68 295.865C225.445 295.395 225.073 295.61 224.721 295.63C218.589 294.377 212.791 295.297 207.209 297.646V113.735C207.209 112.952 206.817 111.679 208.462 112.482C208.462 112.678 208.541 112.795 208.756 112.736C210.715 112.756 211.538 112.227 211.91 110.622C212.458 110.015 211.988 109.663 211.596 109.271C211.224 108.528 210.499 108.195 209.814 107.842C205.622 105.63 202.214 102.596 199.902 98.4071C199.647 97.8785 199.393 97.35 199.138 96.8214C198.981 96.3321 198.844 95.8231 198.648 95.3533C196.807 91.1446 196.611 86.6813 197.63 82.3747C198.942 76.874 201.979 72.2347 206.778 68.9851C209.736 66.9689 212.948 65.6573 216.572 65.2266C218.609 64.9917 220.548 65.1092 222.566 65.2658C225.367 65.5007 227.953 66.3229 230.382 67.6932C233.026 69.1809 235.318 71.0601 237.218 73.4288C237.238 73.6245 237.316 73.7224 237.531 73.7028C238.452 74.8578 239.236 76.1302 239.784 77.5005C239.725 77.7354 239.843 77.7941 240.039 77.7941C242.605 83.7646 242.82 89.8134 240.626 95.9405L240.646 95.921Z" fill="#404140"/>
<path d="M240.039 77.7745C239.843 77.7745 239.725 77.7158 239.784 77.4809C239.216 76.1106 238.452 74.8382 237.531 73.6832C237.316 73.7028 237.238 73.6049 237.218 73.4092C235.318 71.0601 233.006 69.1613 230.382 67.6736C227.953 66.3229 225.367 65.4811 222.566 65.2462C220.548 65.0896 218.609 64.9917 216.572 65.2071C212.928 65.6181 209.735 66.9493 206.778 68.9655C201.978 72.2347 198.942 76.8545 197.63 82.3552C196.611 86.6618 196.807 91.125 198.648 95.3337C198.844 95.8035 198.981 96.3125 199.138 96.8018C199.393 97.3304 199.647 97.8589 199.902 98.3875C202.233 102.557 205.622 105.591 209.814 107.823C210.499 108.175 211.224 108.508 211.596 109.252C212.008 109.624 212.458 109.996 211.91 110.603C211.538 112.208 210.695 112.756 208.756 112.717C208.521 112.775 208.462 112.658 208.462 112.462C206.817 111.66 207.209 112.932 207.209 113.715V297.607C212.772 295.277 218.589 294.338 224.721 295.591C225.073 295.571 225.445 295.356 225.68 295.826C228.011 296.041 230.186 296.687 232.243 297.587V116.906C232.164 115.673 232.203 114.4 232.243 113.167C232.282 112.149 231.949 112.032 231.048 112.364C230.205 112.697 229.246 113.363 228.423 112.286C226.523 110.387 226.758 109.526 229.696 107.784C229.99 107.588 230.303 107.392 230.597 107.196C230.675 107.04 230.715 106.864 230.95 107.001C231.361 106.766 231.753 106.511 232.164 106.276C232.243 106.12 232.282 105.944 232.536 106.022C232.967 105.689 233.379 105.337 233.79 105.024C233.947 104.554 234.358 104.515 234.73 104.417C235.475 103.164 236.846 102.479 237.649 101.285C237.649 100.932 237.864 100.737 238.178 100.639C238.824 99.5033 239.49 98.3483 240.137 97.2129C240.019 96.6648 240.333 96.2929 240.646 95.9405C242.82 89.8134 242.624 83.7646 240.058 77.7941L240.039 77.7745ZM219.647 100.032C213.242 100.091 206.68 93.8264 207.189 87.4839C206.993 81.0828 212.419 75.0927 218.903 75.0731C226.699 75.0731 231.439 79.5559 231.91 86.6422C232.438 94.3745 226.013 99.9926 219.647 100.032Z" fill="#ABABAB"/>
<path d="M377.099 278.11C376.962 277.855 376.864 277.542 376.668 277.327C370.713 271.337 364.738 265.366 358.725 259.415C357.863 258.554 356.864 258.417 355.806 259.122C355.316 259.376 355.023 259.807 354.807 260.296C348.225 268.068 341.174 275.369 333.554 282.162C322.173 292.38 309.597 300.719 295.924 307.493C293.182 308.843 290.381 310.057 287.58 311.29C284.269 312.719 280.881 313.894 277.59 315.323C277.1 315.205 276.708 315.362 276.336 315.655C274.044 316.399 271.733 317.143 269.461 317.867C268.971 318.161 268.305 317.907 267.874 318.376C264.779 319.179 261.703 319.962 258.628 320.765C257.943 320.941 257.277 321.117 256.611 321.293C255.651 321.743 254.495 322.037 254.691 323.368C255.083 324.034 255.435 324.719 255.749 325.424C256.18 326.344 256.552 327.283 256.865 328.282C258.236 332.549 258.648 336.817 258.628 341.221V346.487C258.628 347.935 258.628 349.364 258.628 350.793C258.942 351.087 259.353 350.852 259.725 350.872H260.352C260.607 350.93 260.881 350.989 260.998 350.637C261.292 350.578 261.606 350.519 261.919 350.48C262.154 350.5 262.428 350.735 262.565 350.324C262.938 350.265 263.29 350.226 263.643 350.147C266.463 349.658 269.186 348.797 271.929 348.033C272.262 348.033 272.653 348.327 272.888 347.818C276.904 346.78 280.881 345.606 284.779 344.196C288.833 342.748 292.888 341.26 296.884 339.635C299.235 338.676 301.723 337.972 303.858 336.484C304.093 336.562 304.152 336.405 304.191 336.229C304.308 336.229 304.426 336.249 304.504 336.21C310.067 333.547 315.513 330.709 320.86 327.636C325.385 325.032 329.871 322.37 334.181 319.434C340.037 315.44 345.738 311.251 351.105 306.631C358.49 300.308 365.404 293.516 371.751 286.136C373.573 284.022 375.59 282.044 377.099 279.656C377.49 279.128 377.49 278.599 377.079 278.071L377.099 278.11ZM371.418 279.363C368.225 283.16 364.876 286.821 361.428 290.403C361.33 290.403 361.232 290.403 361.134 290.423C360.958 290.266 360.801 290.11 360.625 289.953C360.39 289.718 360.155 289.483 359.9 289.248C359.41 288.622 358.842 288.132 357.98 288.191C357.334 288.074 356.707 288.093 356.296 288.72C355.826 288.876 355.728 289.346 355.473 289.698C355.277 289.698 355.16 289.777 355.218 290.012C355.336 291.617 356.472 292.537 357.569 293.476C357.628 293.672 357.647 293.868 357.706 294.064L357.021 294.71C356.805 294.71 356.727 294.788 356.727 295.003C352.339 298.86 347.971 302.716 343.583 306.572C343.289 306.631 343.074 306.827 342.917 307.081C341.134 308.139 339.783 309.783 337.941 310.703C337.863 310.644 337.746 310.625 337.648 310.683C337.53 310.566 337.393 310.429 337.275 310.292C337.334 310.076 337.236 309.939 337.04 309.842C336.707 309.196 336.218 308.706 335.552 308.373C334.2 307.845 333.025 307.825 332.28 309.333C332.085 309.372 331.987 309.45 332.045 309.665C331.81 311.29 333.103 312.21 333.769 313.424C333.671 314.207 332.888 314.422 332.476 314.951C330.439 316.262 328.402 317.554 326.345 318.866C326.11 318.709 326.071 318.925 326.012 319.062L321.977 321.626C321.742 321.548 321.683 321.685 321.664 321.88C321.605 321.92 321.546 321.92 321.487 321.92C321.291 321.92 321.095 321.861 321.017 322.155C320.606 322.409 320.194 322.644 319.783 322.898C319.685 322.977 319.587 323.055 319.489 323.133C319.372 323.192 319.254 323.212 319.156 323.251C319.039 323.309 318.921 323.368 318.823 323.447C318.412 323.701 318.001 323.936 317.589 324.171C317.354 324.034 317.315 324.21 317.256 324.367C316.433 324.817 315.611 325.287 314.788 325.737C314.553 325.58 314.514 325.796 314.435 325.933C313.613 326.363 312.81 326.794 311.967 327.225C311.771 327.107 311.556 326.99 311.34 326.872C310.616 326.089 310.518 324.876 309.48 324.327C309.362 323.955 309.107 324.034 308.833 324.093H308.206C307.305 323.897 306.522 324.151 306.247 325.013C305.954 325.933 305.64 326.99 306.6 327.812C306.522 328.595 307.462 329.084 307.168 329.926C306.757 330.083 306.345 330.239 305.954 330.396C300.136 332.882 294.318 335.368 288.5 337.834C288.187 337.952 287.874 338.089 287.56 338.206C286.659 338.324 285.856 338.715 285.053 339.087C284.485 338.892 284.23 339.479 283.78 339.596C283.525 339.596 283.27 339.577 283.016 339.557H282.976C282.467 338.167 282.546 336.425 280.704 335.916C279.882 335.446 279.137 335.309 278.55 336.249C277.492 336.66 277.433 337.482 277.609 338.422C277.551 338.676 277.472 338.95 277.844 339.068C277.884 339.381 277.923 339.675 277.962 339.988C277.903 340.203 278.021 340.262 278.197 340.223C278.275 340.829 278.236 341.338 277.492 341.534C273.594 342.572 269.715 343.648 265.817 344.686C265.112 344.882 264.387 345.019 263.662 345.175C263.662 342.121 263.584 339.068 263.329 336.014C263.036 332.236 262.409 328.595 260.92 325.11C261.664 324.934 262.409 324.758 263.173 324.582C263.408 324.68 263.466 324.523 263.506 324.347C264.955 324.014 266.405 323.681 267.854 323.349C268.07 323.231 268.266 323.114 268.481 323.016C276.552 320.804 284.387 317.926 291.987 314.403C292.32 314.344 292.653 314.285 292.888 313.992C299.96 310.938 306.737 307.277 313.241 303.108C313.652 303.01 313.985 302.814 314.24 302.462C316.688 300.876 319.156 299.31 321.605 297.705C331.046 291.48 339.45 284.002 347.226 275.839C350.556 272.374 353.945 268.948 356.727 264.975C357.021 264.994 357.314 265.014 357.608 265.033C361.918 269.634 366.423 274.058 371.046 278.384C371.242 278.658 371.536 278.893 371.398 279.284L371.418 279.363Z" fill="#404140"/>
<path d="M371.418 279.363C368.225 283.16 364.876 286.821 361.428 290.403C361.33 290.403 361.232 290.403 361.134 290.423C360.958 290.266 360.801 290.109 360.625 289.953C360.39 289.718 360.155 289.483 359.9 289.248C359.41 288.622 358.842 288.132 357.98 288.191C357.334 288.074 356.707 288.093 356.296 288.72C355.826 288.876 355.728 289.346 355.473 289.698C355.277 289.698 355.16 289.777 355.219 290.012C355.336 291.617 356.472 292.537 357.569 293.476C357.628 293.672 357.647 293.868 357.706 294.064L357.021 294.71C356.805 294.71 356.727 294.788 356.727 295.003C352.339 298.86 347.971 302.716 343.583 306.572C343.289 306.631 343.074 306.827 342.917 307.081C341.134 308.138 339.783 309.783 337.942 310.703C337.863 310.644 337.746 310.625 337.648 310.683C337.53 310.566 337.393 310.429 337.276 310.292C337.334 310.076 337.236 309.939 337.041 309.842C336.708 309.196 336.218 308.706 335.552 308.373C334.2 307.845 333.025 307.825 332.281 309.333C332.085 309.372 331.987 309.45 332.045 309.665C331.81 311.29 333.103 312.21 333.769 313.424C333.671 314.207 332.888 314.422 332.476 314.951C330.439 316.262 328.402 317.554 326.345 318.866C326.11 318.709 326.071 318.925 326.012 319.062L321.977 321.626C321.742 321.548 321.683 321.685 321.664 321.88C321.605 321.92 321.546 321.92 321.487 321.92C321.291 321.92 321.096 321.861 321.017 322.155C320.606 322.409 320.194 322.644 319.783 322.898C319.685 322.977 319.587 323.055 319.489 323.133C319.372 323.192 319.254 323.212 319.156 323.251C319.039 323.309 318.921 323.368 318.823 323.446C318.412 323.701 318.001 323.936 317.589 324.171C317.354 324.034 317.315 324.21 317.256 324.367C316.434 324.817 315.611 325.287 314.788 325.737C314.553 325.58 314.514 325.796 314.435 325.933C313.613 326.363 312.81 326.794 311.967 327.225C311.771 327.107 311.556 326.99 311.341 326.872C310.616 326.089 310.518 324.875 309.48 324.327C309.362 323.955 309.107 324.034 308.833 324.092H308.206C307.305 323.897 306.522 324.151 306.248 325.013C305.954 325.933 305.64 326.99 306.6 327.812C306.522 328.595 307.462 329.084 307.168 329.926C306.757 330.083 306.346 330.239 305.954 330.396C300.136 332.882 294.318 335.368 288.5 337.834C288.187 337.952 287.874 338.089 287.56 338.206C286.659 338.324 285.856 338.715 285.053 339.087C284.485 338.892 284.23 339.479 283.78 339.596C283.525 339.596 283.27 339.577 283.016 339.557H282.977C282.467 338.167 282.546 336.425 280.704 335.916C279.882 335.446 279.137 335.309 278.55 336.249C277.492 336.66 277.433 337.482 277.609 338.422C277.551 338.676 277.472 338.95 277.844 339.068C277.884 339.381 277.923 339.675 277.962 339.988C277.903 340.203 278.021 340.262 278.197 340.223C278.275 340.829 278.236 341.338 277.492 341.534C273.594 342.572 269.715 343.648 265.817 344.686C265.112 344.882 264.387 345.019 263.662 345.175C263.662 342.121 263.584 339.068 263.329 336.014C263.036 332.236 262.409 328.595 260.92 325.11C261.664 324.934 262.409 324.758 263.173 324.582C263.408 324.68 263.467 324.523 263.506 324.347C264.955 324.014 266.405 323.681 267.854 323.349C268.07 323.231 268.266 323.114 268.481 323.016C276.552 320.804 284.387 317.926 291.987 314.403C292.32 314.344 292.653 314.285 292.888 313.992C299.96 310.938 306.737 307.277 313.241 303.108C313.652 303.01 313.985 302.814 314.24 302.462C316.688 300.876 319.156 299.31 321.605 297.705C331.046 291.48 339.45 284.002 347.226 275.839C350.556 272.374 353.945 268.948 356.727 264.975C357.021 264.994 357.314 265.014 357.608 265.033C361.918 269.634 366.423 274.058 371.046 278.384C371.242 278.658 371.536 278.893 371.399 279.284L371.418 279.363Z" fill="#ABABAB"/>
<path d="M318.843 323.447C318.96 323.388 319.058 323.309 319.176 323.251C318.941 323.094 318.902 323.309 318.843 323.447Z" fill="#231F20"/>
<path d="M319.509 323.133C319.509 323.133 319.705 322.977 319.803 322.898C319.568 322.8 319.509 322.938 319.509 323.133Z" fill="#231F20"/>
<path d="M239.059 326.5C236.532 321.978 232.713 318.827 227.992 316.889C226.366 316.204 224.584 315.714 222.723 315.518C219.882 315.225 217.101 315.264 214.319 315.832C212.125 316.282 210.225 317.515 208.149 318.22C207.757 318.259 207.365 318.259 207.228 318.729C205.504 320.314 203.644 321.704 202.174 323.603C199.138 327.479 197.493 331.825 197.238 336.64C196.984 341.358 198.453 345.704 200.999 349.658C200.98 349.873 201.078 349.952 201.273 349.971C202.233 351.342 203.291 352.614 204.545 353.73C209.951 358.604 216.259 360.914 223.506 359.583C226.875 358.976 229.912 357.41 232.811 355.394C238.511 351.439 241.214 345.9 241.919 339.283C242.389 334.761 241.351 330.455 239.099 326.481L239.059 326.5ZM236.591 342.474C236.415 342.533 236.258 342.591 236.356 342.807C235.22 346.761 232.987 349.873 229.402 351.988C229.167 351.851 229.108 352.046 229.05 352.203C225.876 353.965 222.605 355.276 218.844 355.022C212.968 354.611 208.286 352.046 205.015 347.211C200.137 339.968 201.411 329.965 208.11 324.269C212.086 320.863 216.729 319.453 221.998 320.314C227.169 321.156 231.459 323.368 234.378 327.831C237.336 332.353 237.786 337.306 236.572 342.474H236.591Z" fill="#404140"/>
<path d="M234.397 327.831C231.479 323.368 227.189 321.137 222.018 320.314C216.748 319.453 212.106 320.882 208.129 324.269C201.43 329.965 200.137 339.968 205.034 347.211C208.306 352.046 212.987 354.611 218.864 355.022C222.625 355.276 225.896 353.965 229.069 352.203C229.128 352.046 229.187 351.85 229.422 351.988C233.007 349.873 235.24 346.761 236.376 342.807C236.297 342.591 236.435 342.513 236.611 342.474C237.825 337.306 237.375 332.373 234.417 327.831H234.397ZM212.184 336.699C212.047 337.58 212.027 338.539 211.263 339.224C210.578 339.831 209.814 340.281 208.913 339.909C207.914 339.498 207.287 338.755 207.228 337.619C207.209 337.247 207.228 336.895 207.228 336.523C207.228 331.375 211.949 325.991 217.022 325.326C217.884 325.208 218.727 324.915 219.628 324.973C221.038 325.052 221.978 325.776 222.155 327.048C222.311 328.203 221.704 329.202 220.49 329.691C219.589 330.063 218.629 330.161 217.688 330.376C214.535 331.12 212.713 333.313 212.204 336.679L212.184 336.699ZM231.616 340.438C230.343 345.763 225.7 349.736 220.176 350.01C218.59 350.01 217.453 349.227 217.218 347.975C216.964 346.604 217.571 345.723 219.373 345.234C221.489 344.647 223.702 344.333 225.25 342.493C226.268 341.26 227.091 339.988 226.875 338.285C226.797 337.541 228.11 335.505 228.717 335.407C230.029 335.172 231.361 335.211 231.792 336.66C232.164 337.874 231.91 339.205 231.635 340.458L231.616 340.438Z" fill="#FBB316"/>
<path d="M222.115 327.068C222.272 328.223 221.665 329.221 220.45 329.711C219.549 330.083 218.59 330.18 217.649 330.396C214.496 331.14 212.674 333.332 212.165 336.699C212.027 337.58 212.008 338.539 211.244 339.224C210.558 339.831 209.794 340.281 208.893 339.909C207.894 339.498 207.267 338.755 207.209 337.619C207.189 337.247 207.209 336.895 207.209 336.523C207.209 331.375 211.929 325.991 217.003 325.326C217.865 325.208 218.707 324.915 219.608 324.973C221.018 325.052 221.959 325.776 222.135 327.048L222.115 327.068Z" fill="#404140"/>
<path d="M231.616 340.438C230.342 345.763 225.7 349.736 220.176 350.01C218.589 350.01 217.453 349.227 217.218 347.975C216.964 346.604 217.571 345.723 219.373 345.234C221.489 344.647 223.702 344.334 225.249 342.493C226.268 341.26 227.091 339.988 226.875 338.285C226.797 337.541 228.109 335.505 228.717 335.407C230.029 335.172 231.361 335.211 231.792 336.66C232.164 337.874 231.91 339.205 231.635 340.458L231.616 340.438Z" fill="#404140"/>
<path d="M217.218 285.294C217.375 286.312 217.884 287.271 218.766 287.623C219.745 287.995 220.881 287.663 221.547 286.743C222.135 285.94 222.213 284.961 222.213 283.963C222.213 266.11 222.213 248.238 222.213 230.385C222.213 212.63 222.213 194.875 222.213 177.12C222.213 176.415 222.155 175.711 221.978 174.986C221.567 173.459 220.548 173.224 219.236 173.342C217.943 173.459 217.473 174.399 217.257 175.495C217.159 176.004 217.218 176.533 217.218 177.061C217.218 212.689 217.218 248.296 217.218 283.924C217.218 284.393 217.159 284.863 217.218 285.333V285.294Z" fill="#404140"/>
<path d="M194.652 121.8C194.79 121.8 194.927 121.8 195.064 121.839C194.907 121.839 194.75 121.858 194.594 121.917C194.457 121.878 194.339 121.858 194.202 121.839C194.359 121.819 194.496 121.8 194.652 121.8Z" fill="#404140"/>
<path d="M197.023 143.607C196.964 143.803 196.905 143.979 196.768 144.155C196.846 143.979 196.964 143.803 197.023 143.607Z" fill="#404140"/>
<path d="M259.608 171.404C259.412 171.169 259.275 170.934 259.177 170.66C259.216 170.758 259.255 170.856 259.333 170.954C259.412 171.11 259.529 171.247 259.608 171.384V171.404Z" fill="#404140"/>
<path d="M339.724 129.806V153.903L283.114 155.626V128.064L339.724 129.806Z" fill="#38BFE3"/>
<path d="M283.114 157.505C282.624 157.505 282.154 157.31 281.801 156.977C281.429 156.624 281.233 156.135 281.233 155.626V128.064C281.233 127.555 281.449 127.066 281.801 126.713C282.173 126.361 282.663 126.165 283.172 126.185L339.783 127.907C340.801 127.946 341.605 128.769 341.605 129.787V153.884C341.605 154.902 340.801 155.724 339.783 155.763L283.172 157.486C283.172 157.486 283.133 157.486 283.114 157.486V157.505ZM284.994 130.002V153.688L337.844 152.063V131.627L284.994 130.002Z" fill="#1BA0C2"/>
<path d="M339.724 158.19C338.686 158.19 337.844 157.349 337.844 156.311V153.903C337.844 152.866 338.686 152.024 339.724 152.024C340.762 152.024 341.605 152.866 341.605 153.903V156.311C341.605 157.349 340.762 158.19 339.724 158.19Z" fill="#1BA0C2"/>
<path d="M339.724 131.685C338.686 131.685 337.844 130.844 337.844 129.806V126.733C337.844 125.695 338.686 124.853 339.724 124.853C340.762 124.853 341.605 125.695 341.605 126.733V129.806C341.605 130.844 340.762 131.685 339.724 131.685Z" fill="#1BA0C2"/>
<path d="M283.114 129.943C283.114 129.943 283.074 129.943 283.055 129.943H282.173C281.135 129.884 280.313 129.023 280.352 127.986C280.371 126.968 281.214 126.165 282.232 126.165C282.232 126.165 282.271 126.165 282.291 126.165H283.172C284.211 126.224 285.033 127.085 284.994 128.123C284.975 129.141 284.132 129.943 283.114 129.943Z" fill="#1BA0C2"/>
<path d="M282.213 157.525C281.194 157.525 280.352 156.722 280.332 155.704C280.293 154.667 281.116 153.806 282.154 153.766H283.035C283.035 153.766 283.075 153.747 283.094 153.747C284.113 153.747 284.955 154.549 284.975 155.567C285.014 156.605 284.191 157.466 283.153 157.505H282.271C282.271 157.505 282.232 157.525 282.213 157.525Z" fill="#1BA0C2"/>
<path d="M273.692 127.046V156.429L235.573 158.249V125.225L273.692 127.046Z" fill="#38BFE3"/>
<path d="M235.573 160.128C235.083 160.128 234.632 159.952 234.28 159.6C233.908 159.248 233.692 158.758 233.692 158.23V125.225C233.692 124.716 233.908 124.227 234.28 123.855C234.652 123.503 235.142 123.307 235.671 123.346L273.79 125.167C274.789 125.206 275.592 126.048 275.592 127.046V156.429C275.592 157.427 274.808 158.269 273.79 158.308L235.671 160.128C235.671 160.128 235.612 160.128 235.573 160.128ZM237.453 127.203V156.272L271.811 154.628V128.847L237.453 127.203Z" fill="#1BA0C2"/>
<path d="M283.114 124.168V158.856L273.692 159.835V123.209L283.114 124.168Z" fill="#38BFE3"/>
<path d="M273.692 161.714C273.222 161.714 272.771 161.538 272.438 161.225C272.046 160.872 271.811 160.363 271.811 159.835V123.209C271.811 122.681 272.046 122.172 272.438 121.819C272.83 121.467 273.359 121.291 273.888 121.349L283.31 122.309C284.269 122.407 284.994 123.209 284.994 124.188V158.876C284.994 159.835 284.269 160.657 283.31 160.755L273.888 161.714C273.888 161.714 273.75 161.714 273.692 161.714ZM275.572 125.284V157.74L281.233 157.153V125.852L275.572 125.265V125.284Z" fill="#1BA0C2"/>
<path d="M235.573 122.426V160.618L219.569 161.675V121.349L235.573 122.426Z" fill="#38BFE3"/>
<path d="M219.569 163.574C219.099 163.574 218.629 163.398 218.276 163.065C217.904 162.712 217.688 162.203 217.688 161.694V121.369C217.688 120.841 217.904 120.351 218.276 119.999C218.648 119.646 219.177 119.451 219.686 119.49L235.69 120.547C236.67 120.606 237.453 121.428 237.453 122.426V160.618C237.453 161.616 236.689 162.438 235.69 162.497L219.686 163.554C219.686 163.554 219.608 163.554 219.569 163.554V163.574ZM221.449 123.385V159.698L233.692 158.876V124.207L221.449 123.385Z" fill="#1BA0C2"/>
<path d="M266.855 143.391H241.528C240.489 143.391 239.647 142.55 239.647 141.512C239.647 140.475 240.489 139.633 241.528 139.633H266.855C267.894 139.633 268.736 140.475 268.736 141.512C268.736 142.55 267.894 143.391 266.855 143.391Z" fill="#1BA0C2"/>
<path d="M332.672 143.391H289.774C288.735 143.391 287.893 142.55 287.893 141.512C287.893 140.475 288.735 139.633 289.774 139.633H332.672C333.71 139.633 334.553 140.475 334.553 141.512C334.553 142.55 333.71 143.391 332.672 143.391Z" fill="#1BA0C2"/>
</g>
<defs>
<clipPath id="clip0_3_5">
<rect width="315.412" height="320" fill="white" transform="translate(62 60)"/>
</clipPath>
</defs>
</svg>
