<svg width="440" height="440" viewBox="0 0 440 440" fill="none" xmlns="http://www.w3.org/2000/svg">
<g clip-path="url(#clip0_3_4)">
<path d="M113.638 124.21L100.935 133.54C99.9228 134.167 99.3286 135.307 99.425 136.511L102.926 184.818C102.926 184.818 114.055 270.142 136.94 299C159.391 327.313 172.8 343.437 209.866 350.118C211.279 350.375 212.74 350.294 214.137 349.909L222.697 347.532" fill="#565656"/>
<path d="M211.504 352.655C210.797 352.655 210.106 352.591 209.432 352.478C170.761 345.509 156.548 327.602 135.045 300.494C112 271.426 100.983 188.624 100.533 185.107L97 136.672C96.8555 134.616 97.8351 132.657 99.5535 131.549L112.192 122.266L115.051 126.153L102.187 135.596C101.93 135.756 101.786 136.029 101.802 136.335L105.303 184.641C105.399 185.348 116.592 269.499 138.803 297.491C160.37 324.679 173.379 341.092 210.267 347.725C211.311 347.917 212.403 347.853 213.463 347.564L222.023 345.187L223.307 349.829L214.748 352.205C213.688 352.494 212.58 352.655 211.488 352.655H211.504Z" fill="#40403F"/>
<path d="M111.084 127.261L114.681 178.507C114.681 178.507 125.698 265.549 148.358 294.986C171.018 324.422 184.363 340.948 222.697 347.5C222.697 347.5 223.339 347.709 226.294 346.022C229.249 344.336 261.657 317.437 264.628 269.997C267.599 222.558 239.849 134.889 235.834 129.59C235.834 129.59 234.147 126.522 230.968 124.515C228.238 122.796 215.984 114.815 187.977 108.423C157.367 101.437 118.568 120.179 114.489 123.664C114.489 123.664 110.988 125.719 111.1 127.261H111.084Z" fill="#ABABAB"/>
<path d="M222.761 349.925C222.536 349.925 222.344 349.893 222.183 349.861C182.276 343.003 168.015 324.471 146.447 296.447C123.643 266.833 112.738 182.393 112.289 178.812L108.675 127.422C108.499 124.868 111.293 122.764 113.092 121.672C118.134 117.738 157.335 98.9482 188.491 106.063C201.226 108.969 219.132 114.173 232.092 122.379L232.236 122.475C235.545 124.563 237.456 127.614 237.857 128.289C242.916 135.74 269.96 223.344 267.037 270.142C263.825 321.484 227.852 347.901 227.499 348.11C225.01 349.523 223.661 349.925 222.777 349.925H222.761ZM113.509 127.47L117.09 178.346C117.187 179.069 128.268 264.938 150.269 293.524C171.853 321.548 184.893 338.507 222.761 345.075C223.05 344.979 223.757 344.706 225.106 343.935C225.443 343.742 259.216 317.999 262.235 269.853C265.19 222.493 237.456 135.853 233.923 131.051L233.73 130.762C233.73 130.762 232.269 128.192 229.683 126.554L229.538 126.458C217.173 118.605 199.828 113.594 187.447 110.768C157.801 104.007 119.515 122.54 116.063 125.494L115.725 125.735C114.858 126.249 113.895 127.02 113.541 127.47H113.509Z" fill="#40403F"/>
<path d="M204.373 224.645C175.113 228.483 146.8 233.398 146.8 233.398C141.099 208.361 138.305 183.935 138.305 183.935L135.639 142.18C135.575 140.928 138.144 139.241 138.144 139.241C140.665 136.865 161.109 125.8 180.959 125.575C181.248 126.683 193.902 175.086 204.373 224.645Z" fill="#38BFE3"/>
<path d="M144.953 236.176L144.439 233.944C138.771 209.068 135.928 184.465 135.896 184.224L133.214 142.357C133.102 140.125 135.253 138.294 136.651 137.346C140.248 134.247 160.852 123.407 180.91 123.182H182.789L183.255 124.981C184.604 130.168 196.633 176.547 206.702 224.164L207.232 226.717L204.646 227.054C175.771 230.844 147.459 235.742 147.17 235.791L144.921 236.176H144.953ZM138.064 142.469L140.698 183.806C140.698 183.919 143.364 206.835 148.631 230.668C155.665 229.479 178.116 225.753 201.45 222.622C192.28 179.518 181.665 138.037 179.08 128.064C160.306 128.931 141.549 139.338 139.766 141.024L139.429 141.281C138.899 141.634 138.305 142.148 138.032 142.469H138.064Z" fill="#40403F"/>
<path d="M248.986 258.482C246.802 297.154 222.89 319.059 220.69 320.44C218.506 321.821 218.04 321.644 218.04 321.644C219.63 303.802 212.676 263.846 204.373 224.645C219.341 222.686 234.549 221 246.369 220.406C248.44 234.217 249.597 247.642 248.986 258.482Z" fill="#38BFE3"/>
<path d="M218.104 324.069C217.783 324.069 217.478 324.005 217.189 323.909L215.486 323.266L215.647 321.451C216.964 306.741 212.242 273.434 202.029 225.159L201.483 222.606L204.068 222.269C221.637 219.972 235.834 218.543 246.256 218.013L248.44 217.9L248.761 220.052C251.09 235.534 251.973 248.51 251.395 258.627C249.018 300.703 222.247 322.319 221.974 322.495C220.256 323.587 219.068 324.085 218.104 324.085V324.069ZM207.264 226.701C216.434 270.318 220.931 300.719 220.657 317.276C225.764 312.458 244.65 292.336 246.577 258.354C247.107 249.04 246.337 237.14 244.297 222.943C234.774 223.505 222.344 224.774 207.264 226.717V226.701Z" fill="#40403F"/>
<path d="M218.04 321.644C189.743 316.296 179.883 302.839 163.165 278.846C156.259 268.953 150.815 251.031 146.8 233.398C146.8 233.398 175.113 228.483 204.373 224.645C212.676 263.846 219.63 303.802 218.04 321.644Z" fill="#1DA0C2"/>
<path d="M220.208 324.519L217.59 324.021C187.768 318.384 177.201 303.208 161.19 280.227C155.087 271.491 149.45 255.913 144.456 233.944L143.894 231.471L146.399 231.037C146.688 230.989 175.097 226.075 204.068 222.269L206.284 221.979L206.75 224.164C217.221 273.594 221.83 306.468 220.465 321.869L220.224 324.519H220.208ZM149.723 235.357C154.445 255.415 159.616 269.58 165.14 277.481C181.746 301.313 191.124 313.406 215.808 318.753C216.386 303.144 211.809 271.715 202.478 227.343C179.353 230.427 157.046 234.12 149.723 235.357Z" fill="#40403F"/>
<path d="M246.369 220.406C234.549 221 219.341 222.686 204.373 224.645C193.903 175.086 181.248 126.683 180.959 125.575C184.829 125.51 188.699 125.88 192.393 126.811C213.077 132.031 222.119 138.535 224.126 139.932C226.471 141.57 227.724 144.075 227.724 144.075C229.86 147.175 241.069 185.027 246.369 220.406Z" fill="#1DA0C2"/>
<path d="M202.478 227.327L202.013 225.143C191.975 177.639 179.979 131.372 178.646 126.249L177.875 123.278L180.927 123.166C185.214 123.086 189.261 123.535 192.987 124.483C202.43 126.859 215.711 131.115 225.379 137.876L225.507 137.973C228.061 139.755 229.49 142.277 229.827 142.903C232.638 147.592 243.639 185.878 248.762 220.068L249.163 222.702L246.513 222.831C236.219 223.344 222.151 224.774 204.711 227.054L202.494 227.343L202.478 227.327ZM184.09 128.032C187.174 139.964 197.403 180.257 206.268 221.963C221.396 220.02 233.923 218.735 243.59 218.141C238.194 183.87 227.595 148.347 225.732 145.424L225.572 145.151C225.572 145.151 224.544 143.16 222.745 141.907L222.617 141.811C213.543 135.483 200.856 131.42 191.799 129.14C189.39 128.53 186.788 128.16 184.074 128.032H184.09Z" fill="#40403F"/>
<path d="M344.219 134.263L317.046 147.223C313.224 148.909 309.145 149.985 304.986 150.419L292.315 151.334C291.624 151.398 290.966 151.029 290.677 150.387L290.612 150.242C290.339 149.616 290.484 148.877 290.998 148.411L300.553 140.43C303.749 137.539 307.378 135.162 311.329 133.428L338.196 121.576C340.638 120.5 343.48 120.628 344.556 123.069L346.692 127.919C347.768 130.36 346.66 133.203 344.235 134.279L344.219 134.263Z" fill="#FBB316"/>
<path d="M176.061 204.41C175.45 204.41 174.872 204.057 174.599 203.479C174.23 202.676 174.599 201.712 175.402 201.359L352.971 120.355C353.774 119.986 354.738 120.355 355.107 121.142C355.476 121.945 355.107 122.909 354.304 123.262L176.735 204.266C176.526 204.362 176.285 204.41 176.077 204.41H176.061Z" fill="#333333"/>
<path d="M396.793 225.829L367.5 232.767C363.405 233.618 359.198 233.811 355.038 233.361L342.464 231.595C341.773 231.514 341.211 231 341.067 230.326L341.034 230.165C340.89 229.491 341.211 228.8 341.805 228.447L352.822 222.666C356.548 220.514 360.611 218.956 364.834 218.089L393.597 212.163C396.199 211.633 398.961 212.355 399.491 214.957L400.551 220.144C401.081 222.746 399.41 225.299 396.809 225.829H396.793Z" fill="#FBB316"/>
<path d="M224.522 258C223.825 258 223.203 257.509 223.037 256.787C222.855 255.958 223.37 255.144 224.189 254.96L404.16 215.037C404.978 214.853 405.782 215.375 405.963 216.204C406.145 217.033 405.63 217.847 404.811 218.031L224.84 257.954C224.734 257.985 224.628 257.985 224.522 257.985V258Z" fill="#333333"/>
<path d="M331.74 102.016L306.142 117.85C302.512 119.938 298.594 121.464 294.499 122.347L282.004 124.643C281.33 124.788 280.623 124.483 280.27 123.872L280.19 123.728C279.836 123.134 279.917 122.379 280.382 121.865L289.006 112.904C291.865 109.676 295.221 106.93 298.963 104.778L324.385 90.0834C326.682 88.7505 329.524 88.5738 330.857 90.8864L333.507 95.4633C334.84 97.7598 334.053 100.715 331.74 102.048V102.016Z" fill="#FBB316"/>
<path d="M207.119 169.128C206.573 169.128 206.043 168.855 205.738 168.341C205.289 167.586 205.53 166.59 206.3 166.141L338.919 87.2248C339.69 86.7752 340.67 87.0161 341.119 87.7869C341.569 88.5417 341.328 89.5374 340.557 89.9871L207.938 168.903C207.681 169.064 207.392 169.128 207.119 169.128Z" fill="#333333"/>
<path d="M126.051 133.974C126.779 133.974 127.368 133.384 127.368 132.657C127.368 131.93 126.779 131.34 126.051 131.34C125.324 131.34 124.735 131.93 124.735 132.657C124.735 133.384 125.324 133.974 126.051 133.974Z" fill="#404140"/>
<path d="M126.051 136.383C123.996 136.383 122.326 134.713 122.326 132.657C122.326 130.601 123.996 128.931 126.051 128.931C128.107 128.931 129.777 130.601 129.777 132.657C129.777 134.713 128.107 136.383 126.051 136.383ZM126.051 131.565C125.457 131.565 124.959 132.047 124.959 132.657C124.959 133.267 125.441 133.749 126.051 133.749C126.662 133.749 127.144 133.267 127.144 132.657C127.144 132.047 126.662 131.565 126.051 131.565Z" fill="#40403F"/>
<path d="M127.368 190.021C128.096 190.021 128.685 189.432 128.685 188.704C128.685 187.977 128.096 187.387 127.368 187.387C126.641 187.387 126.052 187.977 126.052 188.704C126.052 189.432 126.641 190.021 127.368 190.021Z" fill="#404140"/>
<path d="M127.368 192.446C125.313 192.446 123.643 190.776 123.643 188.72C123.643 186.665 125.313 184.995 127.368 184.995C129.424 184.995 131.094 186.665 131.094 188.72C131.094 190.776 129.424 192.446 127.368 192.446ZM127.368 187.628C126.774 187.628 126.276 188.11 126.276 188.72C126.276 189.331 126.758 189.812 127.368 189.812C127.979 189.812 128.46 189.331 128.46 188.72C128.46 188.11 127.979 187.628 127.368 187.628Z" fill="#40403F"/>
<path d="M136.972 238.745C137.699 238.745 138.289 238.156 138.289 237.429C138.289 236.701 137.699 236.112 136.972 236.112C136.245 236.112 135.655 236.701 135.655 237.429C135.655 238.156 136.245 238.745 136.972 238.745Z" fill="#404140"/>
<path d="M136.972 241.154C134.916 241.154 133.246 239.484 133.246 237.429C133.246 235.373 134.916 233.703 136.972 233.703C139.027 233.703 140.698 235.373 140.698 237.429C140.698 239.484 139.027 241.154 136.972 241.154ZM136.972 236.337C136.378 236.337 135.88 236.818 135.88 237.429C135.88 238.039 136.362 238.521 136.972 238.521C137.582 238.521 138.064 238.039 138.064 237.429C138.064 236.818 137.582 236.337 136.972 236.337Z" fill="#40403F"/>
<path d="M155.553 287.662C156.28 287.662 156.87 287.073 156.87 286.346C156.87 285.618 156.28 285.029 155.553 285.029C154.825 285.029 154.236 285.618 154.236 286.346C154.236 287.073 154.825 287.662 155.553 287.662Z" fill="#404140"/>
<path d="M155.553 290.071C153.497 290.071 151.827 288.401 151.827 286.346C151.827 284.29 153.497 282.62 155.553 282.62C157.608 282.62 159.278 284.29 159.278 286.346C159.278 288.401 157.608 290.071 155.553 290.071ZM155.553 285.254C154.958 285.254 154.461 285.735 154.461 286.346C154.461 286.956 154.942 287.438 155.553 287.438C156.163 287.438 156.645 286.956 156.645 286.346C156.645 285.735 156.163 285.254 155.553 285.254Z" fill="#40403F"/>
<path d="M185.247 322.335C185.974 322.335 186.563 321.745 186.563 321.018C186.563 320.291 185.974 319.701 185.247 319.701C184.519 319.701 183.93 320.291 183.93 321.018C183.93 321.745 184.519 322.335 185.247 322.335Z" fill="#404140"/>
<path d="M185.247 324.76C183.191 324.76 181.521 323.09 181.521 321.034C181.521 318.978 183.191 317.308 185.247 317.308C187.302 317.308 188.972 318.978 188.972 321.034C188.972 323.09 187.302 324.76 185.247 324.76ZM185.247 319.942C184.652 319.942 184.154 320.424 184.154 321.034C184.154 321.644 184.636 322.126 185.247 322.126C185.857 322.126 186.339 321.644 186.339 321.034C186.339 320.424 185.857 319.942 185.247 319.942Z" fill="#40403F"/>
<path d="M222.103 335.054C222.83 335.054 223.42 334.464 223.42 333.737C223.42 333.01 222.83 332.42 222.103 332.42C221.376 332.42 220.786 333.01 220.786 333.737C220.786 334.464 221.376 335.054 222.103 335.054Z" fill="#404140"/>
<path d="M222.103 337.463C220.047 337.463 218.377 335.793 218.377 333.737C218.377 331.681 220.047 330.011 222.103 330.011C224.158 330.011 225.829 331.681 225.829 333.737C225.829 335.793 224.158 337.463 222.103 337.463ZM222.103 332.645C221.509 332.645 221.011 333.127 221.011 333.737C221.011 334.347 221.493 334.829 222.103 334.829C222.713 334.829 223.195 334.347 223.195 333.737C223.195 333.127 222.713 332.645 222.103 332.645Z" fill="#40403F"/>
<path d="M157.143 119.842C157.666 119.842 158.09 119.417 158.09 118.894C158.09 118.371 157.666 117.947 157.143 117.947C156.619 117.947 156.195 118.371 156.195 118.894C156.195 119.417 156.619 119.842 157.143 119.842Z" fill="#404140"/>
<path d="M157.143 122.25C155.296 122.25 153.786 120.741 153.786 118.894C153.786 117.047 155.296 115.538 157.143 115.538C158.989 115.538 160.499 117.047 160.499 118.894C160.499 120.741 158.989 122.25 157.143 122.25Z" fill="#40403F"/>
<path d="M197.821 120.5C198.265 120.5 198.624 120.14 198.624 119.697C198.624 119.254 198.265 118.894 197.821 118.894C197.378 118.894 197.018 119.254 197.018 119.697C197.018 120.14 197.378 120.5 197.821 120.5Z" fill="#404140"/>
<path d="M197.821 122.909C196.054 122.909 194.609 121.464 194.609 119.697C194.609 117.93 196.054 116.485 197.821 116.485C199.588 116.485 201.033 117.93 201.033 119.697C201.033 121.464 199.588 122.909 197.821 122.909Z" fill="#40403F"/>
<path d="M228.784 136.094C227.194 136.094 225.909 134.809 225.909 133.219C225.909 131.629 227.194 130.344 228.784 130.344C230.373 130.344 231.658 131.629 231.658 133.219C231.658 134.809 230.373 136.094 228.784 136.094Z" fill="#40403F"/>
<path d="M244.827 179.711C245.084 179.711 245.293 179.503 245.293 179.245C245.293 178.988 245.084 178.78 244.827 178.78C244.57 178.78 244.361 178.988 244.361 179.245C244.361 179.503 244.57 179.711 244.827 179.711Z" fill="#404140"/>
<path d="M244.827 182.136C243.237 182.136 241.952 180.851 241.952 179.261C241.952 177.671 243.237 176.387 244.827 176.387C246.417 176.387 247.702 177.671 247.702 179.261C247.702 180.851 246.417 182.136 244.827 182.136Z" fill="#40403F"/>
<path d="M253.547 219.522C253.804 219.522 254.013 219.314 254.013 219.057C254.013 218.799 253.804 218.591 253.547 218.591C253.29 218.591 253.082 218.799 253.082 219.057C253.082 219.314 253.29 219.522 253.547 219.522Z" fill="#404140"/>
<path d="M253.547 221.947C251.957 221.947 250.673 220.663 250.673 219.073C250.673 217.483 251.957 216.198 253.547 216.198C255.137 216.198 256.422 217.483 256.422 219.073C256.422 220.663 255.137 221.947 253.547 221.947Z" fill="#40403F"/>
<path d="M257 267.074C257.257 267.074 257.466 266.866 257.466 266.609C257.466 266.351 257.257 266.143 257 266.143C256.743 266.143 256.534 266.351 256.534 266.609C256.534 266.866 256.743 267.074 257 267.074Z" fill="#404140"/>
<path d="M257 269.483C255.41 269.483 254.125 268.198 254.125 266.609C254.125 265.019 255.41 263.734 257 263.734C258.59 263.734 259.875 265.019 259.875 266.609C259.875 268.198 258.59 269.483 257 269.483Z" fill="#40403F"/>
<path d="M247.67 302.871C248.131 302.871 248.505 302.497 248.505 302.036C248.505 301.574 248.131 301.201 247.67 301.201C247.208 301.201 246.834 301.574 246.834 302.036C246.834 302.497 247.208 302.871 247.67 302.871Z" fill="#404140"/>
<path d="M247.67 305.28C245.887 305.28 244.426 303.818 244.426 302.036C244.426 300.253 245.887 298.792 247.67 298.792C249.452 298.792 250.914 300.253 250.914 302.036C250.914 303.818 249.452 305.28 247.67 305.28Z" fill="#40403F"/>
<path d="M178.55 125.575V125.559H183.368L178.55 125.575Z" fill="#40403F"/>
<path d="M332.993 188.383L306.11 201.921C302.32 203.688 298.273 204.86 294.113 205.374L281.459 206.562C280.768 206.643 280.093 206.273 279.804 205.647L279.74 205.502C279.451 204.876 279.596 204.137 280.093 203.656L289.472 195.481C292.604 192.51 296.185 190.069 300.087 188.255L326.682 175.825C329.091 174.7 331.933 174.765 333.057 177.19L335.306 181.991C336.43 184.4 335.386 187.275 332.977 188.399L332.993 188.383Z" fill="#FBB316"/>
<path d="M187.543 251.882C186.949 251.882 186.371 251.545 186.098 250.967C185.712 250.164 186.049 249.2 186.852 248.815L341.44 174.235C342.243 173.849 343.207 174.187 343.576 174.99C343.962 175.793 343.625 176.756 342.822 177.142L188.234 251.721C188.009 251.834 187.768 251.882 187.543 251.882Z" fill="#333333"/>
</g>
<defs>
<clipPath id="clip0_3_4">
<rect width="320" height="265.655" fill="white" transform="translate(97 87)"/>
</clipPath>
</defs>
</svg>
