<svg width="440" height="440" viewBox="0 0 440 440" fill="none" xmlns="http://www.w3.org/2000/svg">
<g clip-path="url(#clip0_3_5)">
<path d="M268.456 336.37C262.647 336.37 256.854 336.37 251.046 336.37C249.565 336.37 248.149 336.419 247.092 337.802C246.799 330.561 247.336 323.466 246.783 316.404C246.49 312.613 245.79 308.984 243.951 305.599C242.601 303.11 241.006 300.832 239.037 298.83C237.801 297.577 236.418 296.454 234.953 295.462C231.911 293.412 228.705 291.736 224.947 291.394C224.768 291.02 224.442 291.182 224.166 291.199C218.292 289.994 212.792 291.199 207.536 293.835C207.146 293.753 206.82 293.802 206.723 294.274C206.381 294.486 206.039 294.681 205.698 294.892C205.502 294.778 205.47 294.941 205.405 295.071L202.053 297.659C201.906 297.691 201.793 297.756 201.841 297.935C198.359 301.336 195.528 305.16 194.112 309.911C193.51 311.929 193.022 313.98 192.99 316.062C192.908 324.329 192.957 332.595 192.941 340.861C192.941 341.219 193.055 341.61 192.746 342.049C192.274 341.073 191.477 340.649 190.549 340.584C187.555 340.373 184.545 340.584 181.535 340.438C180.266 340.373 180.51 340.015 180.493 339.348C180.445 337.476 180.022 336.907 178.313 336.663C174.327 336.077 170.308 336.435 166.305 336.451C164.238 336.451 163.962 337.053 163.815 339.25C163.75 340.405 163.376 341.544 163.815 342.716C163.946 343.074 163.929 343.578 163.506 343.888C163.327 344.018 163.213 344.229 163.441 344.425C164.157 345.043 163.783 345.889 163.848 346.621C163.962 348.086 164.661 348.851 166.142 348.851C169.868 348.851 173.594 348.851 177.304 348.851C179.664 348.851 180.493 348.086 180.445 345.694C180.428 344.766 180.77 344.669 181.551 344.669C184.545 344.701 187.523 344.669 190.517 344.685C191.135 344.685 191.704 344.685 192.111 344.083C192.258 343.871 192.453 343.497 192.827 343.709C193.087 343.855 192.957 344.181 192.957 344.425C192.973 346.54 192.957 348.672 193.006 350.787C193.022 352.268 193.787 352.984 195.3 352.984C200.54 352.984 205.779 352.984 211.018 352.984C222.099 352.984 233.18 352.984 244.277 352.984C245.823 352.984 246.294 352.512 246.815 351.064C247.238 349.925 246.783 348.737 247.222 347.305C247.694 348.802 248.735 348.834 249.76 348.834C256.204 348.834 262.663 348.786 269.107 348.867C270.734 348.883 271.954 348.118 271.954 345.954C271.954 343.92 271.938 341.886 271.954 339.852C271.987 337.118 271.32 336.354 268.423 336.354L268.456 336.37ZM176.361 344.034C176.312 344.522 176.198 344.701 175.693 344.701C173.35 344.685 171.024 344.685 168.68 344.701C168.176 344.701 167.948 344.555 168.03 344.05C168.03 344.002 168.03 343.969 168.03 343.92C167.921 341.664 169.006 340.536 171.284 340.536H172.325C172.634 340.536 172.927 340.536 173.236 340.536C176.67 340.536 176.67 340.536 176.377 344.034H176.361ZM241.657 348.867C234.433 348.818 227.192 348.834 219.968 348.834C212.743 348.834 205.502 348.818 198.278 348.851C197.399 348.851 197.123 348.688 197.123 347.744C197.155 337.053 197.058 326.363 197.188 315.672C197.237 311.848 198.701 308.333 200.784 305.127C204.07 300.099 208.789 296.959 214.5 295.364C217.966 294.404 221.53 294.697 225.028 295.364C228.624 296.064 231.976 297.691 234.66 299.985C237.703 302.605 240.128 305.892 241.413 309.944C242.552 313.491 242.894 317.039 242.877 320.7C242.877 329.666 242.861 338.615 242.894 347.581C242.894 348.558 242.698 348.867 241.657 348.867ZM264.714 344.685C259.962 344.685 255.195 344.685 250.444 344.685C249.223 344.685 248.052 344.799 247.092 346.263V338.843C248.133 340.991 249.89 340.519 251.485 340.519C256.594 340.519 261.687 340.552 266.796 340.519C267.626 340.519 267.87 340.715 267.87 341.577C267.854 344.701 267.87 344.701 264.73 344.701L264.714 344.685Z" fill="#231F20"/>
<path d="M271.987 339.868C272.036 337.135 271.368 336.37 268.456 336.37C262.647 336.37 256.854 336.37 251.046 336.37C249.581 336.37 248.149 336.419 247.092 337.802C246.799 330.561 247.336 323.482 246.783 316.404C246.473 312.613 245.774 308.984 243.951 305.616C242.601 303.126 241.006 300.848 239.037 298.846C237.801 297.593 236.418 296.454 234.953 295.478C231.927 293.428 228.705 291.752 224.963 291.426C224.767 291.036 224.458 291.215 224.165 291.231C218.292 290.027 212.808 291.231 207.536 293.867C207.146 293.802 206.82 293.835 206.739 294.307C206.397 294.502 206.056 294.713 205.714 294.925C205.519 294.795 205.486 294.974 205.421 295.088C204.298 295.95 203.192 296.812 202.069 297.659C201.923 297.691 201.825 297.756 201.858 297.935C198.359 301.352 195.544 305.16 194.129 309.911C193.527 311.929 193.039 313.996 193.006 316.079C192.941 324.345 192.973 332.611 192.973 340.877C192.973 341.235 193.071 341.61 192.778 342.049C192.306 341.073 191.509 340.633 190.565 340.584C187.571 340.373 184.561 340.584 181.551 340.422C180.282 340.373 180.526 339.999 180.51 339.331C180.461 337.46 180.038 336.891 178.346 336.647C174.359 336.077 170.34 336.435 166.337 336.451C164.255 336.451 163.994 337.053 163.848 339.234C163.783 340.405 163.409 341.528 163.848 342.7C163.978 343.058 163.962 343.562 163.539 343.871C163.36 344.002 163.246 344.213 163.474 344.408C164.19 345.027 163.815 345.873 163.864 346.605C163.962 348.07 164.694 348.834 166.158 348.851C169.884 348.851 173.611 348.851 177.32 348.851C179.68 348.851 180.51 348.086 180.477 345.694C180.461 344.766 180.803 344.669 181.584 344.669C184.561 344.718 187.555 344.669 190.533 344.685C191.151 344.685 191.721 344.685 192.111 344.083C192.257 343.871 192.469 343.481 192.827 343.692C193.071 343.839 192.957 344.164 192.957 344.408C192.973 346.54 192.957 348.655 193.006 350.771C193.022 352.251 193.787 352.967 195.3 352.967C200.54 352.967 205.779 352.984 211.018 352.984H244.277C245.823 352.984 246.278 352.512 246.815 351.047C247.238 349.908 246.766 348.72 247.222 347.288C247.694 348.786 248.719 348.818 249.76 348.818C256.204 348.818 262.663 348.769 269.107 348.867C270.75 348.883 271.954 348.102 271.954 345.954C271.954 343.92 271.938 341.87 271.954 339.852L271.987 339.868ZM176.377 344.034C176.328 344.539 176.214 344.701 175.71 344.685C173.367 344.669 171.04 344.669 168.697 344.685C168.192 344.685 167.964 344.539 168.046 344.034V343.904C167.937 341.647 169.017 340.519 171.284 340.519H173.236C176.67 340.519 176.67 340.519 176.377 344.018V344.034ZM241.657 348.867C234.416 348.818 227.192 348.834 219.967 348.834C212.743 348.834 205.502 348.818 198.278 348.851C197.399 348.851 197.139 348.688 197.139 347.744C197.188 337.053 197.09 326.363 197.204 315.656C197.253 311.832 198.717 308.317 200.816 305.127C204.103 300.099 208.805 296.959 214.533 295.364C217.999 294.388 221.578 294.697 225.06 295.364C228.656 296.048 232.008 297.675 234.677 299.985C237.719 302.605 240.144 305.892 241.429 309.944C242.568 313.491 242.91 317.039 242.894 320.7C242.894 329.65 242.877 338.615 242.91 347.581C242.91 348.558 242.715 348.867 241.673 348.867H241.657ZM264.713 344.669H250.444C249.223 344.669 248.052 344.799 247.092 346.247V338.827C248.133 340.975 249.89 340.503 251.485 340.503C256.578 340.519 261.687 340.536 266.796 340.503C267.642 340.503 267.87 340.698 267.87 341.561C267.854 344.685 267.87 344.685 264.73 344.685L264.713 344.669Z" fill="#404140"/>
<path d="M176.36 344.034C176.312 344.539 176.198 344.701 175.693 344.685C173.35 344.669 171.023 344.669 168.68 344.685C168.176 344.685 167.948 344.539 168.03 344.034V343.904C167.921 341.648 169 340.519 171.268 340.519H173.22C176.653 340.519 176.653 340.519 176.36 344.018V344.034Z" fill="#ABABAB"/>
<path d="M242.894 347.598C242.894 348.574 242.698 348.883 241.657 348.883C234.416 348.834 227.192 348.851 219.968 348.851C212.743 348.851 205.502 348.834 198.278 348.867C197.399 348.867 197.139 348.704 197.139 347.76C197.188 337.07 197.09 326.379 197.204 315.672C197.253 311.848 198.717 308.333 200.816 305.144C204.103 300.116 208.805 296.975 214.533 295.38C217.999 294.404 221.578 294.713 225.06 295.38C228.656 296.064 232.008 297.691 234.677 300.002C237.719 302.622 240.144 305.909 241.429 309.96C242.568 313.508 242.91 317.055 242.894 320.716C242.894 329.666 242.877 338.632 242.91 347.598H242.894Z" fill="#ABABAB"/>
<path d="M189.882 304.542C189.15 304.102 188.352 303.923 187.523 303.891C187.458 303.744 187.36 303.679 187.262 303.647C187.1 303.598 186.904 303.679 186.725 303.696C186.53 303.598 186.367 303.451 186.156 303.419C182.999 302.833 179.924 301.873 176.881 300.929C173.79 299.969 170.796 298.765 167.753 297.691C167.59 297.382 167.232 297.415 166.972 297.284C165.377 296.633 163.767 296.048 162.188 295.332C157.681 293.314 153.206 291.199 148.992 288.579C149.008 288.416 148.992 288.318 148.797 288.432C147.723 288.058 146.779 287.44 145.884 286.756C145.917 286.561 145.852 286.496 145.673 286.577C144.322 285.845 142.939 285.145 141.735 284.153C141.882 283.73 141.621 283.551 141.263 283.453C140.401 283.648 139.945 282.916 139.36 282.558C138.123 281.761 136.951 280.866 135.747 280.003C135.894 279.531 135.682 279.466 135.292 279.564C134.641 279.352 134.071 278.978 133.648 278.425C133.697 278.23 133.632 278.213 133.469 278.311C132.965 277.969 132.412 277.66 131.924 277.27C130.118 275.74 128.295 274.21 126.505 272.665C124.96 271.33 123.414 269.996 121.949 268.597C116.791 263.731 112.04 258.492 107.484 253.089C106.508 251.918 105.467 251.82 104.328 252.959C99.9181 257.385 95.3784 261.681 91.1153 266.27C90.7736 266.432 90.5133 266.693 90.3506 267.018C90.1716 267.213 89.9926 267.376 89.8136 267.555C88.8861 268.206 88.756 268.987 89.3906 269.915C89.4882 270.061 89.5533 270.224 89.6509 270.37C93.2794 274.666 96.973 278.897 100.992 282.835C104.523 286.317 108.086 289.75 111.861 292.988C111.91 293.119 111.959 293.265 112.154 293.184C112.935 293.786 113.7 294.372 114.481 294.974C119.021 298.554 123.674 301.987 128.49 305.16C132.509 307.78 136.675 310.221 140.938 312.466C144.143 314.159 147.365 315.867 150.668 317.38C153.646 318.747 156.754 319.854 159.829 321.058C162.253 322.002 164.661 323.027 167.135 323.84C170.275 324.866 173.448 325.793 176.637 326.623C178.834 327.192 181.014 327.827 183.243 328.283C183.894 328.413 184.529 328.527 185.196 328.624C185.961 328.82 186.725 329.08 187.392 328.738C187.392 327.567 187.392 326.379 187.392 325.207C187.392 322.018 187.409 318.829 187.441 315.639C187.474 312.971 188.19 310.448 189.345 308.073C189.735 307.259 190.175 306.462 190.663 305.681C190.695 305.111 190.386 304.753 189.898 304.558L189.882 304.542ZM184.382 309.846C183.78 311.864 183.292 313.914 183.26 315.997C183.227 318.715 183.211 321.416 183.227 324.117C182.381 323.873 181.535 323.629 180.656 323.499C177.597 323.043 174.668 321.92 171.674 321.058C170.991 320.765 171.089 320.293 171.365 319.772C172.114 317.641 171.788 316.713 170.112 316.176C168.778 316.014 168.046 316.648 167.867 317.95C167.395 318.422 167.574 319.333 166.744 319.561C166.484 319.463 166.321 319.138 165.996 319.187C163.685 318.048 161.147 317.462 158.771 316.469C155.094 314.907 151.352 313.491 147.821 311.571C147.658 311.522 147.479 311.49 147.316 311.441C147.284 311.262 147.267 311.099 147.235 310.937C147.43 310.204 148.179 309.716 148.081 308.87C148.52 308.333 148.39 307.812 148.016 307.308C146.535 305.713 144.843 306.25 144.029 308.577V308.626C143.834 308.821 143.606 308.984 143.395 309.163C140.954 308.122 138.774 306.657 136.48 305.355C133.063 303.419 129.873 301.206 126.635 299.009C125.106 297.984 125.139 297.952 126.05 296.438C127.14 294.681 126.668 293.509 124.683 293.054C124.471 292.989 124.276 292.989 124.146 293.2C123.576 293.346 123.235 293.77 122.926 294.225C122.616 294.437 122.421 294.713 122.324 295.071C121.917 295.348 121.575 295.511 121.103 295.071C120.566 294.567 119.899 294.193 119.297 293.753C119.086 293.444 118.809 293.2 118.435 293.07C118.093 292.744 117.768 292.419 117.41 292.11C113.326 288.676 109.29 285.194 105.385 281.565C105.418 281.403 105.45 281.224 105.483 281.061C106.069 280.801 106.459 280.345 106.768 279.776C107.338 279.369 107.338 278.799 107.224 278.197C107.159 277.351 106.622 276.912 105.857 276.7C105.467 276.7 105.06 276.7 104.669 276.7C104.149 277.107 103.628 277.514 103.107 277.921C101.903 278.995 101.74 277.384 101.041 277.139C98.6326 274.634 96.2896 272.046 94.0441 269.378C93.8814 269.003 94.2069 268.857 94.3858 268.645C97.8516 265.212 101.35 261.795 104.734 258.296C105.678 257.32 106.117 257.564 106.866 258.459C112.512 265.114 118.484 271.412 125.187 277.026C131.387 282.233 138.09 286.675 144.989 290.873C152.263 295.299 159.975 298.781 167.802 302.036C171.967 303.761 176.36 304.916 180.689 306.218C182.218 306.673 183.78 307.031 185.342 307.373C185.001 308.17 184.691 309.017 184.431 309.879L184.382 309.846Z" fill="#404140"/>
<path d="M185.293 307.324C184.952 308.122 184.643 308.968 184.382 309.83C183.78 311.848 183.292 313.898 183.259 315.981C183.227 318.698 183.211 321.4 183.227 324.101C182.381 323.857 181.535 323.613 180.656 323.482C177.597 323.027 174.668 321.904 171.674 321.042C170.991 320.749 171.089 320.277 171.365 319.756C172.114 317.624 171.788 316.697 170.112 316.16C168.778 315.997 168.046 316.632 167.867 317.934C167.395 318.406 167.574 319.317 166.744 319.545C166.484 319.447 166.321 319.121 165.996 319.17C163.685 318.031 161.147 317.445 158.771 316.453C155.094 314.891 151.352 313.475 147.821 311.555C147.658 311.506 147.479 311.474 147.316 311.425C147.284 311.246 147.267 311.083 147.235 310.92C147.43 310.188 148.179 309.7 148.081 308.854C148.52 308.317 148.39 307.796 148.016 307.292C146.535 305.697 144.843 306.234 144.029 308.561V308.61C143.834 308.805 143.606 308.968 143.395 309.147C140.954 308.105 138.774 306.641 136.48 305.339C133.063 303.403 129.873 301.19 126.635 298.993C125.106 297.968 125.139 297.935 126.05 296.422C127.14 294.665 126.668 293.493 124.683 293.037C124.471 292.972 124.276 292.972 124.146 293.184C123.576 293.33 123.235 293.753 122.926 294.209C122.616 294.42 122.421 294.697 122.324 295.055C121.917 295.332 121.575 295.494 121.103 295.055C120.566 294.551 119.899 294.176 119.297 293.737C119.086 293.428 118.809 293.184 118.435 293.054C118.093 292.728 117.768 292.403 117.41 292.094C113.326 288.66 109.29 285.178 105.385 281.549C105.418 281.386 105.45 281.207 105.483 281.045C106.069 280.784 106.459 280.329 106.768 279.759C107.338 279.352 107.338 278.783 107.224 278.181C107.159 277.335 106.622 276.895 105.857 276.684C105.467 276.684 105.06 276.684 104.669 276.684C104.149 277.091 103.628 277.497 103.107 277.904C101.903 278.978 101.74 277.367 101.041 277.123C98.6326 274.617 96.2895 272.03 94.0441 269.361C93.8814 268.987 94.2068 268.841 94.3858 268.629C97.8516 265.196 101.35 261.779 104.734 258.28C105.678 257.304 106.117 257.548 106.866 258.443C112.512 265.098 118.484 271.395 125.187 277.009C131.387 282.216 138.09 286.659 144.989 290.857C152.263 295.283 159.975 298.765 167.802 302.02C171.967 303.744 176.36 304.9 180.689 306.201C182.218 306.657 183.78 307.015 185.342 307.357L185.293 307.324Z" fill="#ABABAB"/>
<path d="M200.898 139.25V139.233C200.588 138.794 200.1 138.501 199.547 138.404C199.417 138.404 199.287 138.42 199.157 138.469C199.043 138.436 198.945 138.42 198.831 138.404C198.115 138.355 197.692 138.875 197.318 139.445C195.577 142.211 193.868 144.994 192.144 147.76C190.419 150.559 188.662 153.325 186.921 156.108C184.35 160.241 181.763 164.358 179.192 168.491C177.223 171.647 175.27 174.821 173.302 177.977C171.658 180.646 169.95 183.298 168.339 185.999C166.5 189.059 164.515 192.053 162.676 195.096C161.114 197.699 159.438 200.221 157.844 202.809C156.07 205.672 154.264 208.487 152.474 211.335C147.902 218.658 143.346 225.996 138.79 233.335C138.416 233.937 137.554 234.441 137.505 234.799C137.309 236.118 136.317 236.931 135.796 238.021C134.706 240.332 133.177 242.415 131.81 244.563C129.206 248.647 126.733 252.796 124.211 256.913C123.446 258.182 122.633 259.403 121.949 260.705C121.412 261.73 121.803 262.918 122.812 263.455C122.861 263.471 122.877 263.503 122.926 263.503L128.36 268.776C128.767 269.166 129.288 269.361 129.808 269.361C130.329 269.361 130.899 269.15 131.305 268.727C131.468 268.564 131.598 268.369 131.696 268.157C131.745 268.108 131.777 268.06 131.81 267.995C132.965 266.058 134.234 264.171 135.422 262.251C138.432 257.483 141.394 252.683 144.42 247.915C145.803 245.751 147.284 243.635 148.585 241.438C151.286 236.947 153.971 232.456 156.705 227.998C157.095 227.347 157.583 227.347 157.876 227.916C158.511 229.121 159.731 229.641 160.675 230.487C166.126 235.385 172.081 239.551 178.573 242.952C184.822 246.222 191.346 248.777 198.164 250.567C198.929 250.762 199.612 250.665 200.117 250.356C200.767 249.998 201.207 249.314 201.207 248.517V240.674C201.207 240.576 201.207 240.478 201.19 240.397C201.321 239.567 200.881 238.868 199.938 238.412C198.424 237.68 196.781 237.208 195.203 236.752C193.266 236.183 191.411 235.45 189.589 234.686C182.869 231.854 176.735 227.998 171.089 223.409C168.664 221.424 166.224 219.455 164.287 216.965C163.88 216.428 163.604 216.103 164.336 215.647C164.564 215.517 164.694 215.175 164.84 214.915C167.981 209.936 171.121 204.94 174.229 199.961C178.72 192.785 183.211 185.576 187.685 178.384C191.981 171.468 196.26 164.52 200.523 157.588C200.605 157.442 200.702 157.312 200.8 157.165C200.8 157.165 200.816 157.133 200.833 157.116C200.833 157.116 200.832 157.1 200.849 157.084C200.865 157.035 200.898 156.986 200.914 156.954C200.979 156.807 201.077 156.661 201.125 156.498C201.158 156.449 201.174 156.4 201.174 156.352C201.19 156.319 201.19 156.287 201.207 156.254C201.239 156.124 201.256 155.977 201.256 155.831V140.47C201.256 140.014 201.125 139.591 200.865 139.266L200.898 139.25ZM197.106 155.668C190.045 166.977 182.983 178.319 175.937 189.628C170.666 198.073 165.394 206.502 160.138 214.948C158.934 216.884 158.869 216.933 160.382 218.576C165.524 224.19 171.219 229.104 177.809 232.993C183.91 236.606 190.272 239.551 197.058 241.617V246.125C190.451 244.27 184.187 241.585 178.215 238.233C171.04 234.214 164.531 229.332 158.934 223.279C158.104 222.4 157.144 221.961 156.038 221.928C155.061 221.896 155.11 222.97 154.72 223.572C152.588 227.005 150.554 230.52 148.293 233.856C146.324 236.785 144.55 239.844 142.663 242.822C139.099 248.419 135.747 254.18 132.119 259.745C131.419 260.802 130.589 261.844 129.987 262.901C129.792 263.243 129.597 263.585 129.418 263.943L126.359 260.965C127.14 259.826 127.888 258.654 128.621 257.467C131.956 252.032 135.389 246.646 138.79 241.227C140.645 238.282 142.484 235.32 144.306 232.342C146.844 228.209 149.366 224.027 152.035 219.976C155.582 214.59 158.836 209.024 162.351 203.622C163.522 201.816 164.629 199.945 165.735 198.09C168.762 193.078 171.935 188.147 175.01 183.168C179.192 176.448 183.341 169.727 187.506 163.007C190.695 157.865 194.015 152.804 197.123 147.597V155.652L197.106 155.668Z" fill="#404140"/>
<path d="M160.122 214.964C158.918 216.9 158.853 216.949 160.366 218.592C165.508 224.206 171.203 229.121 177.792 233.01C183.894 236.622 190.256 239.567 197.041 241.634V246.141C190.435 244.286 184.171 241.601 178.199 238.249C171.024 234.23 164.515 229.348 158.918 223.295C158.088 222.416 157.128 221.977 156.021 221.945C155.045 221.912 155.094 222.986 154.703 223.588C152.572 227.021 150.538 230.536 148.276 233.872C146.307 236.801 144.534 239.86 142.646 242.838C139.083 248.435 135.731 254.196 132.103 259.761C131.403 260.819 130.573 261.86 129.971 262.918C129.776 263.259 129.581 263.601 129.402 263.959L126.343 260.981C127.124 259.842 127.872 258.671 128.604 257.483C131.94 252.048 135.373 246.662 138.774 241.243C140.629 238.298 142.467 235.336 144.29 232.359C146.828 228.226 149.35 224.044 152.019 219.992C155.566 214.606 158.82 209.041 162.335 203.638C163.506 201.832 164.613 199.961 165.719 198.106C168.746 193.094 171.918 188.164 174.994 183.184C179.175 176.464 183.325 169.744 187.49 163.023C190.679 157.881 193.999 152.821 197.106 147.614V155.668C190.045 166.977 182.983 178.319 175.937 189.628C170.666 198.073 165.394 206.502 160.138 214.948L160.122 214.964Z" fill="#ABABAB"/>
<path d="M200.881 139.233C200.572 138.794 200.084 138.501 199.531 138.404C200.165 138.355 200.621 138.745 200.881 139.233Z" fill="#40403F"/>
<path d="M201.239 156.254C201.272 156.124 201.288 155.977 201.288 155.831V155.375C201.288 155.375 201.288 155.506 201.288 155.587C201.321 155.815 201.288 156.043 201.239 156.254Z" fill="#40403F"/>
<path d="M318.002 260.477C318.002 260.477 317.969 260.412 317.953 260.363C317.27 258.98 316.342 257.743 315.561 256.425C313.039 252.227 310.436 248.045 307.832 243.896C304.773 239.03 301.682 234.181 298.623 229.316C294.783 223.214 290.959 217.063 287.135 210.928C285.118 207.674 283.1 204.419 281.082 201.165C277.747 195.812 274.411 190.474 271.076 185.137C269.92 183.298 268.765 181.443 267.61 179.605C267.512 179.442 267.398 179.295 267.268 179.165C266.975 178.742 266.52 178.433 265.983 178.335L255.195 176.22C254.218 176.025 253.291 176.545 252.917 177.392C252.884 177.44 252.868 177.473 252.852 177.522C252.835 177.587 252.803 177.636 252.787 177.701C252.787 177.766 252.754 177.831 252.738 177.896C252.722 178.01 252.705 178.107 252.705 178.238C252.705 178.368 252.705 178.514 252.722 178.661C252.738 178.742 252.77 178.823 252.787 178.905C252.787 178.954 252.803 178.986 252.835 179.035C252.868 179.116 252.901 179.198 252.966 179.279C253.031 179.409 253.128 179.523 253.193 179.637C255.146 182.696 257.066 185.804 259.002 188.88C262.175 193.973 265.364 199.082 268.537 204.192C270.848 207.885 273.109 211.628 275.469 215.289C276.087 216.249 275.908 216.9 275.192 217.584C273.467 219.243 271.791 220.984 269.969 222.53C262.354 228.974 253.877 233.921 244.326 236.996C242.894 237.452 241.348 237.696 240.046 238.493C239.574 238.77 239.037 239.095 238.842 239.616C238.631 239.941 238.517 240.316 238.517 240.723V248.566C238.517 249.705 239.46 250.649 240.599 250.649C240.697 250.649 240.795 250.648 240.876 250.632H240.892C241.136 250.632 241.38 250.6 241.641 250.535C245.953 249.509 250.102 248.045 254.202 246.369C264.632 242.073 273.842 235.939 281.945 228.144C282.775 227.347 283.084 227.64 283.556 228.405C286.24 232.765 288.974 237.094 291.675 241.455C297.044 250.063 302.414 258.671 307.784 267.279C308.06 267.718 308.353 268.141 308.662 268.564C308.906 268.906 309.199 269.101 309.525 269.182C309.834 269.345 310.175 269.427 310.501 269.427C311.022 269.427 311.542 269.231 311.949 268.841L317.742 263.227C318.474 262.511 318.571 261.356 317.986 260.542L318.002 260.477ZM310.582 264.285C309.036 261.714 307.507 259.159 305.929 256.637C301.796 250.03 297.647 243.44 293.497 236.85C290.699 232.359 287.916 227.835 285.118 223.328C284.646 222.563 284.06 221.945 283.002 222.107C282.303 221.896 281.961 222.416 281.538 222.856C272.328 232.586 261.378 239.681 248.751 244.205C246.734 244.921 244.684 245.49 242.65 246.125V241.634C242.65 241.634 242.698 241.634 242.715 241.617C248.637 239.779 254.397 237.598 259.702 234.311C263.005 232.261 266.389 230.341 269.513 227.998C273.24 225.215 276.494 221.912 279.699 218.56C280.952 217.242 281.017 216.721 280.041 215.273C277.454 211.514 275.29 207.511 272.768 203.703C269.53 198.789 266.65 193.615 263.412 188.668C261.801 186.211 260.271 183.673 258.726 181.167L264.551 182.306C264.762 182.533 264.974 182.761 265.153 183.038C268.147 187.936 271.189 192.769 274.216 197.65C281.001 208.536 287.802 219.439 294.571 230.325C300.803 240.348 307.035 250.372 313.283 260.395C313.446 260.656 313.609 260.916 313.771 261.177L310.566 264.268L310.582 264.285Z" fill="#404140"/>
<path d="M313.788 261.177L310.582 264.268C309.036 261.697 307.507 259.143 305.929 256.62C301.796 250.014 297.647 243.424 293.497 236.833C290.699 232.342 287.916 227.819 285.118 223.311C284.646 222.547 284.06 221.928 283.002 222.091C282.303 221.879 281.961 222.4 281.538 222.839C272.328 232.57 261.378 239.665 248.751 244.188C246.734 244.904 244.684 245.474 242.65 246.109V241.617C242.65 241.617 242.698 241.617 242.715 241.601C248.637 239.762 254.398 237.582 259.702 234.295C263.005 232.245 266.389 230.325 269.514 227.981C273.24 225.199 276.494 221.896 279.699 218.544C280.952 217.226 281.017 216.705 280.041 215.257C277.454 211.498 275.29 207.495 272.768 203.687C269.53 198.773 266.65 193.599 263.412 188.652C261.801 186.195 260.271 183.656 258.726 181.15L264.551 182.289C264.762 182.517 264.974 182.745 265.153 183.022C268.147 187.92 271.189 192.752 274.216 197.634C281.001 208.52 287.802 219.422 294.571 230.308C300.803 240.332 307.035 250.356 313.283 260.379C313.446 260.64 313.609 260.9 313.771 261.16L313.788 261.177Z" fill="#ABABAB"/>
<path d="M252.657 178.205C252.657 178.335 252.657 178.482 252.673 178.628C252.657 178.531 252.64 178.417 252.64 178.319C252.64 178.286 252.64 178.254 252.64 178.221L252.657 178.205Z" fill="#404140"/>
<path d="M252.673 178.612C252.657 178.514 252.64 178.4 252.64 178.303C252.64 178.27 252.64 178.238 252.64 178.205C252.64 178.335 252.64 178.482 252.657 178.628L252.673 178.612Z" fill="#40403F"/>
<path d="M230.153 109.146C229.763 103.256 225.809 99.5295 219.349 99.5295C213.963 99.5295 209.456 104.509 209.619 109.846C209.196 115.118 214.647 120.309 219.967 120.276C225.272 120.244 230.593 115.59 230.153 109.146ZM220.033 116.095C216.778 116.192 213.687 113.491 213.736 109.732C213.784 106.25 216.713 103.63 219.886 103.614C223.336 103.598 226.362 106.315 225.972 109.846C226.313 113.67 223.287 115.981 220.033 116.095Z" fill="#404140"/>
<path d="M242.829 112.205C242.552 111.782 242.617 111.311 242.617 110.855C242.617 109.846 242.65 108.87 242.617 107.861C242.487 105.143 241.608 102.67 240.421 100.213C237.833 94.892 233.961 91.0029 228.429 88.8062C226.541 88.074 224.54 87.8299 222.603 87.2766C222.424 86.8861 222.099 87.0325 221.822 87.0488C220.797 87.3417 219.74 87.2603 218.682 87.2603C215.021 87.2766 211.718 88.4808 208.561 90.2056C208.366 90.0917 208.334 90.2544 208.268 90.3846C207.845 90.6612 207.422 90.9378 206.999 91.2145C206.804 91.1331 206.755 91.2633 206.723 91.4097C203.159 93.9482 200.588 97.2677 198.961 101.319C198.799 101.319 198.701 101.368 198.766 101.547C198.457 103.044 197.741 104.411 197.643 105.973C197.188 106.689 197.529 107.568 197.188 108.316V110.92C197.041 111.571 197.204 112.157 197.497 112.726C197.464 113.231 197.529 113.703 197.611 114.191C197.855 115.671 198.603 117.006 198.734 118.503C198.668 118.503 198.603 118.535 198.538 118.552C198.603 118.552 198.652 118.552 198.717 118.568C199.222 118.828 199.368 119.333 199.628 119.788C200.881 122.018 201.939 124.393 204.07 125.988C205.275 126.867 205.502 128.006 205.502 129.454C205.454 181.85 205.47 234.246 205.47 286.642V286.74C205.47 287.342 205.421 287.977 205.519 288.546C205.681 289.457 206.056 290.287 207.097 290.401C207.829 289.897 208.594 289.457 209.391 289.034C210.986 288.205 212.711 287.537 214.517 287.033C217.982 286.057 221.562 286.366 225.044 287.033C226.964 287.391 228.803 288.042 230.511 288.904C231.374 289.327 232.187 289.799 232.952 290.352C234.107 290.157 234.563 289.295 234.563 287.391V286.854C234.563 251.755 234.563 169.06 234.579 133.945C234.579 133.766 234.579 133.587 234.563 133.408C234.66 131.732 234.481 130.072 234.547 128.412C234.579 127.68 234.742 127.143 235.295 126.623C237.736 124.377 239.607 121.676 240.941 118.633C241.804 116.648 242.145 114.532 242.633 112.45C242.78 112.417 242.894 112.368 242.845 112.173L242.829 112.205ZM237.394 116.859C237.117 117.152 236.857 117.461 236.971 117.917C236.434 118.861 235.881 119.821 235.344 120.765C235.084 120.846 234.905 121.009 234.905 121.302C234.254 122.31 233.115 122.864 232.48 123.905C232.171 123.986 231.829 124.035 231.699 124.41C231.357 124.686 231.016 124.963 230.658 125.239C230.462 125.174 230.414 125.305 230.349 125.451C230.023 125.646 229.681 125.858 229.34 126.053C229.145 125.939 229.112 126.102 229.047 126.216C228.803 126.378 228.542 126.541 228.298 126.704C225.858 128.152 225.646 128.868 227.241 130.447C227.924 131.358 228.721 130.804 229.421 130.512C230.153 130.235 230.446 130.333 230.414 131.179C230.365 132.204 230.349 133.262 230.414 134.287V284.527C228.705 283.762 226.899 283.242 224.963 283.063C224.768 282.672 224.458 282.851 224.166 282.867C219.073 281.826 214.256 282.591 209.619 284.543V131.667C209.619 131.016 209.294 129.958 210.66 130.625C210.66 130.788 210.725 130.886 210.904 130.837C212.532 130.853 213.215 130.414 213.524 129.08C213.98 128.575 213.589 128.282 213.264 127.957C212.955 127.339 212.353 127.062 211.783 126.769C208.301 124.93 205.47 122.408 203.55 118.926C203.338 118.487 203.127 118.047 202.915 117.608C202.785 117.201 202.671 116.778 202.508 116.387C200.979 112.889 200.816 109.179 201.662 105.599C202.753 101.027 205.275 97.1701 209.261 94.4689C211.718 92.7929 214.386 91.7026 217.397 91.3446C219.089 91.1494 220.7 91.247 222.376 91.3772C224.702 91.5725 226.85 92.2559 228.868 93.3949C231.065 94.6316 232.968 96.1937 234.547 98.1627C234.563 98.3254 234.628 98.4067 234.807 98.3905C235.572 99.3505 236.223 100.408 236.678 101.547C236.629 101.743 236.727 101.791 236.89 101.791C239.021 106.754 239.2 111.782 237.378 116.876L237.394 116.859Z" fill="#404140"/>
<path d="M236.89 101.775C236.727 101.775 236.629 101.726 236.678 101.531C236.206 100.392 235.572 99.3343 234.807 98.3742C234.628 98.3905 234.563 98.3091 234.547 98.1464C232.968 96.1937 231.048 94.6153 228.868 93.3787C226.85 92.2559 224.702 91.5562 222.376 91.3609C220.7 91.2307 219.089 91.1494 217.397 91.3284C214.37 91.6701 211.718 92.7766 209.261 94.4526C205.275 97.1701 202.753 101.01 201.662 105.583C200.816 109.163 200.979 112.873 202.508 116.371C202.671 116.762 202.785 117.185 202.915 117.592C203.127 118.031 203.338 118.47 203.55 118.91C205.486 122.376 208.301 124.898 211.783 126.753C212.353 127.046 212.955 127.322 213.264 127.941C213.605 128.25 213.98 128.559 213.524 129.063C213.215 130.398 212.515 130.853 210.904 130.821C210.709 130.87 210.66 130.772 210.66 130.609C209.294 129.942 209.619 131 209.619 131.651V284.511C214.24 282.574 219.073 281.793 224.165 282.835C224.458 282.818 224.768 282.639 224.963 283.03C226.899 283.209 228.705 283.746 230.414 284.494V134.303C230.349 133.278 230.381 132.22 230.414 131.195C230.446 130.349 230.17 130.251 229.421 130.528C228.721 130.804 227.924 131.358 227.241 130.463C225.662 128.884 225.858 128.168 228.298 126.72C228.542 126.557 228.803 126.395 229.047 126.232C229.112 126.102 229.145 125.955 229.34 126.069C229.681 125.874 230.007 125.663 230.349 125.467C230.414 125.337 230.446 125.191 230.658 125.256C231.016 124.979 231.357 124.686 231.699 124.426C231.829 124.035 232.171 124.003 232.48 123.921C233.098 122.88 234.237 122.31 234.905 121.318C234.905 121.025 235.084 120.862 235.344 120.781C235.881 119.837 236.434 118.877 236.971 117.933C236.873 117.478 237.134 117.168 237.394 116.876C239.2 111.782 239.037 106.754 236.906 101.791L236.89 101.775ZM219.951 120.276C214.631 120.325 209.18 115.118 209.603 109.846C209.44 104.525 213.947 99.5458 219.333 99.5295C225.809 99.5295 229.747 103.256 230.137 109.146C230.576 115.574 225.239 120.244 219.951 120.276Z" fill="#ABABAB"/>
<path d="M350.74 268.304C350.626 268.092 350.544 267.832 350.382 267.653C345.435 262.674 340.473 257.711 335.477 252.764C334.761 252.048 333.932 251.934 333.053 252.52C332.646 252.731 332.402 253.089 332.223 253.496C326.756 259.956 320.898 266.026 314.569 271.672C305.115 280.166 294.669 287.098 283.312 292.728C281.034 293.851 278.707 294.86 276.38 295.885C273.63 297.073 270.815 298.049 268.082 299.237C267.675 299.139 267.349 299.27 267.04 299.514C265.137 300.132 263.217 300.75 261.329 301.352C260.922 301.596 260.369 301.385 260.011 301.775C257.44 302.443 254.886 303.093 252.331 303.761C251.762 303.907 251.208 304.054 250.655 304.2C249.858 304.574 248.898 304.818 249.061 305.925C249.386 306.478 249.679 307.048 249.939 307.633C250.297 308.398 250.606 309.179 250.867 310.009C252.006 313.556 252.347 317.104 252.331 320.765V325.142C252.331 326.346 252.331 327.534 252.331 328.722C252.591 328.966 252.933 328.771 253.242 328.787H253.763C253.974 328.836 254.202 328.885 254.3 328.592C254.544 328.543 254.804 328.494 255.065 328.462C255.26 328.478 255.488 328.673 255.602 328.332C255.911 328.283 256.204 328.25 256.497 328.185C258.84 327.778 261.101 327.062 263.379 326.428C263.656 326.428 263.981 326.672 264.177 326.249C267.512 325.386 270.815 324.41 274.053 323.238C277.421 322.034 280.79 320.798 284.109 319.447C286.061 318.65 288.128 318.064 289.901 316.827C290.097 316.892 290.146 316.762 290.178 316.616C290.276 316.616 290.373 316.632 290.438 316.599C295.059 314.386 299.583 312.027 304.025 309.472C307.784 307.308 311.51 305.095 315.089 302.654C319.954 299.335 324.689 295.852 329.148 292.012C335.282 286.756 341.026 281.11 346.298 274.975C347.811 273.218 349.487 271.574 350.74 269.589C351.065 269.15 351.065 268.711 350.723 268.271L350.74 268.304ZM346.021 269.345C343.369 272.502 340.586 275.545 337.723 278.523C337.641 278.523 337.56 278.523 337.479 278.539C337.332 278.409 337.202 278.279 337.056 278.148C336.86 277.953 336.665 277.758 336.454 277.563C336.047 277.042 335.575 276.635 334.859 276.684C334.322 276.586 333.801 276.602 333.46 277.123C333.069 277.253 332.988 277.644 332.776 277.937C332.614 277.937 332.516 278.002 332.565 278.197C332.662 279.531 333.606 280.296 334.517 281.077C334.566 281.24 334.582 281.403 334.631 281.565L334.062 282.102C333.883 282.102 333.818 282.168 333.818 282.347C330.173 285.552 326.544 288.758 322.9 291.963C322.656 292.012 322.477 292.175 322.346 292.386C320.866 293.265 319.743 294.632 318.213 295.397C318.148 295.348 318.051 295.332 317.969 295.381C317.872 295.283 317.758 295.169 317.66 295.055C317.709 294.876 317.628 294.762 317.465 294.681C317.188 294.144 316.782 293.737 316.228 293.46C315.106 293.021 314.129 293.005 313.511 294.258C313.348 294.29 313.267 294.355 313.316 294.534C313.121 295.885 314.194 296.65 314.748 297.659C314.666 298.309 314.015 298.488 313.674 298.928C311.982 300.018 310.289 301.092 308.581 302.182C308.386 302.052 308.353 302.231 308.304 302.345L304.952 304.477C304.757 304.412 304.708 304.525 304.692 304.688C304.643 304.721 304.594 304.721 304.546 304.721C304.383 304.721 304.22 304.672 304.155 304.916C303.813 305.127 303.472 305.323 303.13 305.534C303.049 305.599 302.967 305.664 302.886 305.73C302.788 305.778 302.691 305.795 302.609 305.827C302.512 305.876 302.414 305.925 302.333 305.99C301.991 306.201 301.649 306.397 301.308 306.592C301.112 306.478 301.08 306.625 301.031 306.755C300.348 307.129 299.664 307.519 298.981 307.894C298.786 307.764 298.753 307.943 298.688 308.056C298.005 308.414 297.337 308.772 296.638 309.13C296.475 309.033 296.296 308.935 296.117 308.838C295.515 308.187 295.434 307.178 294.571 306.722C294.474 306.413 294.262 306.478 294.034 306.527H293.514C292.765 306.364 292.114 306.576 291.887 307.292C291.642 308.056 291.382 308.935 292.179 309.619C292.114 310.269 292.895 310.676 292.651 311.376C292.31 311.506 291.968 311.636 291.642 311.767C286.81 313.833 281.977 315.9 277.145 317.95C276.884 318.048 276.624 318.161 276.364 318.259C275.615 318.357 274.948 318.682 274.281 318.991C273.809 318.829 273.598 319.317 273.223 319.414C273.012 319.414 272.8 319.398 272.589 319.382H272.556C272.133 318.227 272.198 316.778 270.669 316.355C269.985 315.965 269.367 315.851 268.879 316.632C268 316.974 267.952 317.657 268.098 318.438C268.049 318.65 267.984 318.877 268.293 318.975C268.326 319.235 268.358 319.479 268.391 319.74C268.342 319.919 268.44 319.968 268.586 319.935C268.651 320.44 268.619 320.863 268 321.025C264.762 321.888 261.541 322.783 258.303 323.645C257.717 323.808 257.115 323.922 256.513 324.052C256.513 321.513 256.448 318.975 256.236 316.437C255.992 313.296 255.471 310.269 254.235 307.373C254.853 307.227 255.471 307.08 256.106 306.934C256.301 307.015 256.35 306.885 256.383 306.738C257.587 306.462 258.791 306.185 259.995 305.909C260.174 305.811 260.337 305.713 260.516 305.632C267.219 303.793 273.728 301.401 280.041 298.472C280.318 298.423 280.594 298.375 280.79 298.13C286.663 295.592 292.293 292.549 297.695 289.083C298.037 289.002 298.314 288.839 298.525 288.546C300.559 287.228 302.609 285.926 304.643 284.592C312.486 279.418 319.466 273.202 325.926 266.416C328.692 263.536 331.507 260.688 333.818 257.385C334.062 257.401 334.306 257.418 334.55 257.434C338.13 261.258 341.872 264.935 345.712 268.532C345.875 268.759 346.119 268.955 346.005 269.28L346.021 269.345Z" fill="#404140"/>
<path d="M346.021 269.345C343.369 272.502 340.586 275.545 337.723 278.523C337.641 278.523 337.56 278.523 337.479 278.539C337.332 278.409 337.202 278.279 337.056 278.148C336.86 277.953 336.665 277.758 336.454 277.563C336.047 277.042 335.575 276.635 334.859 276.684C334.322 276.586 333.801 276.602 333.46 277.123C333.069 277.253 332.988 277.644 332.776 277.937C332.614 277.937 332.516 278.002 332.565 278.197C332.662 279.531 333.606 280.296 334.517 281.077C334.566 281.24 334.582 281.403 334.631 281.565L334.062 282.102C333.883 282.102 333.818 282.168 333.818 282.347C330.173 285.552 326.544 288.758 322.9 291.963C322.656 292.012 322.477 292.175 322.346 292.386C320.866 293.265 319.743 294.632 318.213 295.397C318.148 295.348 318.051 295.332 317.969 295.38C317.872 295.283 317.758 295.169 317.66 295.055C317.709 294.876 317.628 294.762 317.465 294.681C317.188 294.144 316.782 293.737 316.228 293.46C315.106 293.021 314.129 293.005 313.511 294.258C313.348 294.29 313.267 294.355 313.316 294.534C313.121 295.885 314.194 296.65 314.748 297.659C314.666 298.309 314.016 298.488 313.674 298.928C311.982 300.018 310.289 301.092 308.581 302.182C308.386 302.052 308.353 302.231 308.304 302.345L304.952 304.477C304.757 304.411 304.708 304.525 304.692 304.688C304.643 304.721 304.594 304.721 304.546 304.721C304.383 304.721 304.22 304.672 304.155 304.916C303.813 305.127 303.472 305.323 303.13 305.534C303.049 305.599 302.967 305.664 302.886 305.73C302.788 305.778 302.691 305.795 302.609 305.827C302.512 305.876 302.414 305.925 302.333 305.99C301.991 306.201 301.649 306.397 301.308 306.592C301.112 306.478 301.08 306.625 301.031 306.755C300.348 307.129 299.664 307.519 298.981 307.894C298.786 307.764 298.753 307.943 298.688 308.056C298.005 308.414 297.337 308.772 296.638 309.13C296.475 309.033 296.296 308.935 296.117 308.838C295.515 308.187 295.434 307.178 294.571 306.722C294.474 306.413 294.262 306.478 294.034 306.527H293.514C292.765 306.364 292.114 306.576 291.887 307.292C291.643 308.056 291.382 308.935 292.179 309.619C292.114 310.269 292.895 310.676 292.651 311.376C292.31 311.506 291.968 311.636 291.643 311.767C286.81 313.833 281.977 315.9 277.145 317.95C276.884 318.048 276.624 318.161 276.364 318.259C275.615 318.357 274.948 318.682 274.281 318.991C273.809 318.829 273.598 319.317 273.223 319.414C273.012 319.414 272.8 319.398 272.589 319.382H272.556C272.133 318.227 272.198 316.778 270.669 316.355C269.985 315.965 269.367 315.851 268.879 316.632C268 316.974 267.952 317.657 268.098 318.438C268.049 318.65 267.984 318.877 268.293 318.975C268.326 319.235 268.358 319.479 268.391 319.74C268.342 319.919 268.44 319.968 268.586 319.935C268.651 320.44 268.619 320.863 268 321.025C264.762 321.888 261.541 322.783 258.303 323.645C257.717 323.808 257.115 323.922 256.513 324.052C256.513 321.513 256.448 318.975 256.236 316.437C255.992 313.296 255.471 310.269 254.235 307.373C254.853 307.227 255.471 307.08 256.106 306.934C256.301 307.015 256.35 306.885 256.383 306.738C257.587 306.462 258.791 306.185 259.995 305.909C260.174 305.811 260.337 305.713 260.516 305.632C267.219 303.793 273.728 301.401 280.041 298.472C280.318 298.423 280.594 298.375 280.79 298.13C286.664 295.592 292.293 292.549 297.695 289.083C298.037 289.002 298.314 288.839 298.525 288.546C300.559 287.228 302.609 285.926 304.643 284.592C312.486 279.418 319.466 273.202 325.926 266.416C328.692 263.536 331.507 260.688 333.818 257.385C334.062 257.401 334.306 257.418 334.55 257.434C338.13 261.258 341.872 264.935 345.712 268.532C345.875 268.759 346.119 268.955 346.005 269.28L346.021 269.345Z" fill="#ABABAB"/>
<path d="M302.349 305.99C302.447 305.941 302.528 305.876 302.625 305.827C302.43 305.697 302.398 305.876 302.349 305.99Z" fill="#231F20"/>
<path d="M302.902 305.73C302.902 305.73 303.065 305.599 303.146 305.534C302.951 305.453 302.902 305.567 302.902 305.73Z" fill="#231F20"/>
<path d="M236.076 308.528C233.977 304.77 230.804 302.15 226.883 300.539C225.532 299.969 224.052 299.562 222.506 299.4C220.146 299.156 217.836 299.188 215.525 299.66C213.703 300.034 212.125 301.059 210.4 301.645C210.075 301.678 209.749 301.678 209.635 302.068C208.203 303.386 206.658 304.542 205.437 306.12C202.915 309.342 201.548 312.954 201.337 316.957C201.125 320.879 202.346 324.491 204.461 327.778C204.445 327.957 204.526 328.022 204.689 328.039C205.486 329.178 206.365 330.235 207.406 331.163C211.897 335.215 217.136 337.135 223.157 336.028C225.955 335.524 228.477 334.222 230.886 332.546C235.62 329.259 237.866 324.654 238.452 319.154C238.842 315.395 237.98 311.815 236.109 308.512L236.076 308.528ZM234.026 321.806C233.879 321.855 233.749 321.904 233.831 322.083C232.887 325.37 231.032 327.957 228.054 329.715C227.859 329.601 227.81 329.763 227.761 329.894C225.125 331.358 222.408 332.448 219.284 332.237C214.403 331.895 210.514 329.763 207.797 325.744C203.745 319.724 204.803 311.409 210.367 306.673C213.671 303.842 217.527 302.67 221.904 303.386C226.199 304.086 229.763 305.925 232.187 309.635C234.644 313.394 235.018 317.511 234.01 321.806H234.026Z" fill="#404140"/>
<path d="M232.203 309.635C229.779 305.925 226.216 304.07 221.92 303.386C217.543 302.67 213.687 303.858 210.384 306.673C204.819 311.409 203.745 319.724 207.813 325.744C210.53 329.763 214.419 331.895 219.3 332.237C222.424 332.448 225.142 331.358 227.778 329.894C227.827 329.763 227.875 329.601 228.071 329.715C231.048 327.957 232.903 325.37 233.847 322.083C233.782 321.904 233.896 321.839 234.042 321.806C235.051 317.511 234.677 313.41 232.22 309.635H232.203ZM213.752 317.006C213.638 317.738 213.622 318.536 212.987 319.105C212.418 319.61 211.783 319.984 211.035 319.675C210.205 319.333 209.684 318.715 209.635 317.771C209.619 317.462 209.635 317.169 209.635 316.86C209.635 312.58 213.557 308.105 217.771 307.552C218.487 307.454 219.186 307.21 219.935 307.259C221.106 307.324 221.887 307.926 222.034 308.984C222.164 309.944 221.66 310.774 220.651 311.181C219.902 311.49 219.105 311.571 218.324 311.75C215.704 312.369 214.191 314.191 213.768 316.99L213.752 317.006ZM229.893 320.114C228.835 324.54 224.979 327.843 220.391 328.071C219.073 328.071 218.129 327.42 217.934 326.379C217.722 325.24 218.226 324.508 219.723 324.101C221.481 323.613 223.319 323.352 224.605 321.823C225.451 320.797 226.134 319.74 225.955 318.324C225.89 317.706 226.98 316.014 227.485 315.932C228.575 315.737 229.681 315.769 230.039 316.974C230.349 317.982 230.137 319.089 229.909 320.13L229.893 320.114Z" fill="#FBB316"/>
<path d="M222.001 309C222.132 309.96 221.627 310.79 220.618 311.197C219.87 311.506 219.073 311.588 218.292 311.767C215.672 312.385 214.159 314.207 213.736 317.006C213.622 317.738 213.605 318.536 212.971 319.105C212.401 319.61 211.767 319.984 211.018 319.675C210.188 319.333 209.668 318.715 209.619 317.771C209.603 317.462 209.619 317.169 209.619 316.86C209.619 312.58 213.54 308.105 217.755 307.552C218.47 307.454 219.17 307.21 219.919 307.259C221.09 307.324 221.871 307.926 222.018 308.984L222.001 309Z" fill="#404140"/>
<path d="M229.893 320.114C228.835 324.54 224.979 327.843 220.391 328.071C219.073 328.071 218.129 327.42 217.934 326.379C217.722 325.24 218.226 324.508 219.723 324.101C221.481 323.613 223.319 323.352 224.605 321.823C225.451 320.798 226.134 319.74 225.955 318.324C225.89 317.706 226.98 316.014 227.485 315.932C228.575 315.737 229.681 315.769 230.039 316.974C230.349 317.982 230.137 319.089 229.909 320.13L229.893 320.114Z" fill="#404140"/>
<path d="M217.934 274.276C218.064 275.122 218.487 275.919 219.219 276.212C220.033 276.521 220.976 276.245 221.53 275.48C222.018 274.813 222.083 273.999 222.083 273.169C222.083 258.329 222.083 243.473 222.083 228.632C222.083 213.874 222.083 199.115 222.083 184.356C222.083 183.77 222.034 183.184 221.887 182.582C221.546 181.313 220.7 181.118 219.609 181.215C218.536 181.313 218.145 182.094 217.966 183.005C217.885 183.428 217.934 183.868 217.934 184.307C217.934 213.922 217.934 243.521 217.934 273.137C217.934 273.527 217.885 273.918 217.934 274.308V274.276Z" fill="#404140"/>
<path d="M199.189 138.371C199.303 138.371 199.417 138.371 199.531 138.404C199.401 138.404 199.27 138.42 199.14 138.469C199.026 138.436 198.929 138.42 198.815 138.404C198.945 138.387 199.059 138.371 199.189 138.371Z" fill="#404140"/>
<path d="M201.158 156.498C201.109 156.661 201.06 156.807 200.946 156.954C201.011 156.807 201.109 156.661 201.158 156.498Z" fill="#404140"/>
<path d="M253.145 179.605C252.982 179.409 252.868 179.214 252.787 178.986C252.819 179.068 252.852 179.149 252.917 179.23C252.982 179.36 253.079 179.474 253.145 179.588V179.605Z" fill="#404140"/>
<path d="M319.694 145.026V165.057L272.67 166.489V143.578L319.694 145.026Z" fill="#38BFE3"/>
<path d="M272.67 168.051C272.263 168.051 271.873 167.889 271.58 167.612C271.271 167.319 271.108 166.912 271.108 166.489V143.578C271.108 143.155 271.287 142.748 271.58 142.455C271.889 142.162 272.296 142 272.719 142.016L319.743 143.448C320.589 143.48 321.256 144.164 321.256 145.01V165.041C321.256 165.887 320.589 166.571 319.743 166.603L272.719 168.035C272.719 168.035 272.686 168.035 272.67 168.035V168.051ZM274.232 145.189V164.878L318.132 163.528V146.54L274.232 145.189Z" fill="#1BA0C2"/>
<path d="M319.694 168.621C318.832 168.621 318.132 167.921 318.132 167.059V165.057C318.132 164.195 318.832 163.495 319.694 163.495C320.556 163.495 321.256 164.195 321.256 165.057V167.059C321.256 167.921 320.556 168.621 319.694 168.621Z" fill="#1BA0C2"/>
<path d="M319.694 146.588C318.832 146.588 318.132 145.889 318.132 145.026V142.472C318.132 141.609 318.832 140.909 319.694 140.909C320.556 140.909 321.256 141.609 321.256 142.472V145.026C321.256 145.889 320.556 146.588 319.694 146.588Z" fill="#1BA0C2"/>
<path d="M272.67 145.14C272.67 145.14 272.638 145.14 272.621 145.14H271.889C271.027 145.091 270.343 144.375 270.376 143.513C270.392 142.667 271.092 142 271.938 142C271.938 142 271.97 142 271.987 142H272.719C273.581 142.049 274.265 142.764 274.232 143.627C274.216 144.473 273.516 145.14 272.67 145.14Z" fill="#1BA0C2"/>
<path d="M271.922 168.068C271.076 168.068 270.376 167.4 270.36 166.554C270.327 165.692 271.01 164.976 271.873 164.943H272.605C272.605 164.943 272.638 164.927 272.654 164.927C273.5 164.927 274.2 165.594 274.216 166.44C274.248 167.303 273.565 168.019 272.703 168.051H271.97C271.97 168.051 271.938 168.068 271.922 168.068Z" fill="#1BA0C2"/>
<path d="M264.844 142.732V167.156L233.18 168.67V141.219L264.844 142.732Z" fill="#38BFE3"/>
<path d="M233.18 170.232C232.773 170.232 232.399 170.085 232.106 169.792C231.797 169.5 231.618 169.093 231.618 168.653V141.219C231.618 140.796 231.797 140.389 232.106 140.08C232.415 139.787 232.822 139.624 233.261 139.657L264.925 141.17C265.755 141.202 266.422 141.902 266.422 142.732V167.156C266.422 167.986 265.771 168.686 264.925 168.718L233.261 170.232C233.261 170.232 233.212 170.232 233.18 170.232ZM234.742 142.862V167.026L263.282 165.659V144.229L234.742 142.862Z" fill="#1BA0C2"/>
<path d="M272.67 140.34V169.174L264.844 169.988V139.543L272.67 140.34Z" fill="#38BFE3"/>
<path d="M264.844 171.55C264.453 171.55 264.079 171.403 263.802 171.143C263.477 170.85 263.282 170.427 263.282 169.988V139.543C263.282 139.103 263.477 138.68 263.802 138.387C264.128 138.094 264.567 137.948 265.006 137.997L272.833 138.794C273.63 138.875 274.232 139.543 274.232 140.356V169.19C274.232 169.988 273.63 170.671 272.833 170.752L265.006 171.55C265.006 171.55 264.892 171.55 264.844 171.55ZM266.406 141.267V168.247L271.108 167.758V141.739L266.406 141.251V141.267Z" fill="#1BA0C2"/>
<path d="M233.18 138.892V170.639L219.886 171.517V137.997L233.18 138.892Z" fill="#38BFE3"/>
<path d="M219.886 173.096C219.496 173.096 219.105 172.949 218.812 172.673C218.503 172.38 218.324 171.957 218.324 171.534V138.013C218.324 137.574 218.503 137.167 218.812 136.874C219.121 136.581 219.561 136.418 219.984 136.451L233.277 137.33C234.091 137.378 234.742 138.062 234.742 138.892V170.639C234.742 171.468 234.107 172.152 233.277 172.201L219.984 173.079C219.984 173.079 219.919 173.079 219.886 173.079V173.096ZM221.448 139.689V169.874L231.618 169.19V140.372L221.448 139.689Z" fill="#1BA0C2"/>
<path d="M259.165 156.319H238.126C237.264 156.319 236.564 155.619 236.564 154.757C236.564 153.895 237.264 153.195 238.126 153.195H259.165C260.027 153.195 260.727 153.895 260.727 154.757C260.727 155.619 260.027 156.319 259.165 156.319Z" fill="#1BA0C2"/>
<path d="M313.836 156.319H278.202C277.34 156.319 276.64 155.619 276.64 154.757C276.64 153.895 277.34 153.195 278.202 153.195H313.836C314.699 153.195 315.398 153.895 315.398 154.757C315.398 155.619 314.699 156.319 313.836 156.319Z" fill="#1BA0C2"/>
</g>
<defs>
<clipPath id="clip0_3_5">
<rect width="262" height="266" fill="white" transform="translate(89 87)"/>
</clipPath>
</defs>
</svg>
